<svg id="Layer_1" enable-background="new 0 0 500 500" viewBox="0 0 500 500" xmlns="http://www.w3.org/2000/svg" width="300" height="300" version="1.1" xmlns:xlink="http://www.w3.org/1999/xlink" xmlns:svgjs="http://svgjs.dev/svgjs"><g width="100%" height="100%" transform="matrix(1,0,0,1,0,0)"><path clip-rule="evenodd" d="m455.344 156.154c-1.739 8.664-2.367 17.597-3.265 26.636-64.639 25.9-132.339 61.3-195.134 91.735-.424-6.072-2.344-15.146-3.717-21.055 67.444-33.026 135.605-65.876 202.977-99.099-.531 1.368-.666.83-.861 1.783zm-45.821 199.222 10.465-5.919c-.138-44.077 1.683-93.809 2.295-139.584-52.802 26.593-111.705 54.183-164.901 79.995-.246 49.99 6.744 103.051-.965 152.632 45.684-26.936 107.03-60.42 153.106-87.124zm-176.941 78.333c-44.312-25.776-102.777-58.863-147.198-84.699-1.086-46.106-.874-93.529-4.742-139.377 46.659 22.386 118.872 59.026 165.359 80.856-1.048 50.078-3.156 102.232 1.842 151.978-5.069-2.959-10.28-5.602-15.261-8.758zm-165.435-241.838c58.814 26.032 120.589 56.422 179.083 83.222 1.687-7.108.818-14.606 1.968-21.949-67.144-31.517-135.928-63.482-202.427-96.482l2.262 27.639zm.823-47.326c-2.535 1.123-4.862 2.436-7.167 3.761 60.826 28.812 129.545 61.725 190.223 90.727 63.462-30.94 127.994-59.874 191.64-90.383-25.649-13.829-54.296-27.099-79.673-40.742-18.998 4.917-52.639 10.318-72.076 13.076 25.109 8.447 47.47 23.054 69.77 37.036 6.657 4.172 2.809 14.45-4.665 13.576-8.109-.812-18.199-1.861-25.764-2.464l-3.287 23.071c-.998 6.039-8.917 7.631-12.209 2.534-13.415-18.438-26.339-37.683-40.229-55.692-4.334 9.248-14.75 8.893-23.54 8.84-9.371 1.521-19.827-.747-23.354-10.796-6.777 13.598-17.288 26.882-25.732 38.861-19.908 30.709-23.331 26.786-26.336-7.908-8.822.949-18.16 2.011-26.903 3.325-7.972.855-10.943-8.727-5.2-12.814 20.558-13.904 51.477-34.183 75.52-39.172-14.51-.274-22.636-1.737-36.714-4.54-10.359-2.399-32.414-4.248-42.044-8.993-22.574 14.505-48.586 25.625-72.26 38.697zm76.577-57.022c3.914-9.019 4.605-42.612 19.31-30.467 19.951 13.828 42.423 29.085 64.01 39.477-.889 5.517-.757 12.56-1.085 18.003-8.412-2.497-20.251-5.297-28.996-7.925 0 0-38.382-8.442-38.382-8.442-5.186-1.515-17.54-2.074-14.857-10.646zm45.119 85.026c-.994-7.44.741-21.41-11.201-19.027 16.045-8.493 31.524-20.534 47.99-27.655 0 0 .017 3.624.017 3.624-11.299 11.184-26.766 29.832-36.806 43.058zm24.804-98.941c10.71-3.649 26.419-10.873 37.025-15.185 12.791 6.022 26.564 13.527 40.262 16.831-4.893 4.941-13.183 9.425-17.234 14.52-4.324-12.128-17.194-8.474-26.571-5.514-4.739 1.104-2.392 1.296-2.235 1.65-.361.92-.598.592-.065.992-.45.123-1.358.272-1.646.643 2.251 2.049 3.644 1.184 6.742 1.532.819.085.407.655 1.259.567 4.797-.497 2.926-.189 7.87.327 3.977.415 2.414 1.555 3.265 1.908.451.187 1.186 1.647 1.161 3.042-.203 9.937-.759 26.364-1.292 36.458-1.245 3.515-6.103 2.117-9.036 2.355-4.843-1.014-14.305 3.116-12.743-5.516-.074-4.313-.163-14.248-.224-18.651-.066-8.361-5.389-17.69 2.998-23.339-4.381-5.88-12.134-.876-14.356 4.387-4.993-5.297-10.989-12.068-16.841-16.438.56-.176 1.116-.367 1.661-.569zm109.923 80.928c.965.18 1.935.251 2.911.289-16.732-10.708-34.818-19.598-50.956-31.372l.006 8.9c16.228 12.145 26.802 27.094 39.64 43.156 1.931-6.754-2.423-21.686 8.399-20.973zm-16.465-74.959c43.414-26.551 40.822-41.146 52.65 5.276 2.924 5.204-.169 11.809-6.442 12.285-21.62 5.382-45.894 8.827-66.636 16.847-1.412.298-9.658 4.666-11.189 3.211-1.605-34.625-3.661-13.084 31.617-37.619zm153.182 97.692c.321-8.08-1.315-16.35-2.153-24.265 3.547-1.837 3.485-6.979-.18-8.688-9.911-4.619-19.837-9.361-29.917-13.577-20.388-8.609-41.498-17.029-61.954-25.181 10.177-7.209 9.527-19.924 5.553-30.451-10.765-58.768-40.811-30.385-73.198-6.099-10.533-11.831-28.877-17.45-43.084-23.743-5.625-3.891-10.312.25-15.982 3.522-10.708 5.403-18.936 9.288-29.535 16.127 0 0-4.376 4.29-4.376 4.29-22.803-15.474-59.817-54.189-70.375-5.083-2.546 13.057-10.988 29.423 1.809 39.922-32.984 8.912-64.195 24.478-95.218 38.304-5.002 2.293-5.539 9.31-.817 12.281-1.928 48.309-4.581 29.338 36.386 53.73-8.207 47.253-6.024 96.854-7.103 144.762-.009 2.429 1.422 5.232 3.664 6.328 23.425 13.956 47.576 27.871 71.236 41.357 0 0 103.159 58.482 103.159 58.482 59.044-24.196 115.887-67.407 173.843-98.117 8.303-5.008 9.171-3.55 8.488-13.556.474-44.929-1.893-94.985-5.2-140.025 7.272-3.791 17.587-9.763 25.181-13.261 11.864-5.834 10.136-4.408 9.773-17.059z" fill-rule="evenodd" fill="#f8a2ab" fill-opacity="1" data-original-color="#000000ff" stroke="none" stroke-opacity="1"/></g></svg>