<svg xmlns="http://www.w3.org/2000/svg" xmlns:xlink="http://www.w3.org/1999/xlink" version="1.1" id="Capa_1" x="0px" y="0px" viewBox="0 0 512 512" style="enable-background:new 0 0 512 512;" xml:space="preserve" width="300" height="300" xmlns:svgjs="http://svgjs.dev/svgjs"><g width="100%" height="100%" transform="matrix(1,0,0,1,0,0)"><g>
	<path style="stroke-linecap: round; stroke-linejoin: round; stroke-miterlimit: 10;" d="&#10;&#9;&#9;M69.353,422.828L69.353,422.828c0,34.35,34.836,79.172,69.186,79.172H309.55c34.35,0,69.186-44.822,69.186-79.172v0H69.353z" fill="none" fill-opacity="1" stroke="#f8a2ab" stroke-opacity="1" data-original-stroke-color="#000000ff" stroke-width="20" data-original-stroke-width="20"/>
	<path style="stroke-linecap: round; stroke-linejoin: round; stroke-miterlimit: 10;" d="&#10;&#9;&#9;M378.736,422.828h36.28c15.26,0,27.631,12.371,27.631,27.631v0c0,7.328-2.911,14.356-8.093,19.538" fill="none" fill-opacity="1" stroke="#f8a2ab" stroke-opacity="1" data-original-stroke-color="#000000ff" stroke-width="20" data-original-stroke-width="20"/>
	
		<line style="stroke-linecap: round; stroke-linejoin: round; stroke-miterlimit: 10;" x1="231.277" y1="78.634" x2="231.277" y2="159.231" fill="none" fill-opacity="1" stroke="#f8a2ab" stroke-opacity="1" data-original-stroke-color="#000000ff" stroke-width="20" data-original-stroke-width="20"/>
	<path style="stroke-linecap: round; stroke-linejoin: round; stroke-miterlimit: 10;" d="&#10;&#9;&#9;M308.355,203.604v-21.191c0-12.802-10.379-23.181-23.181-23.181H172.343c-12.802,0-23.181,10.379-23.181,23.181v75.719&#10;&#9;&#9;c0,15.119,12.256,27.375,27.375,27.375h0c15.119,0,27.375-12.256,27.375-27.375v-6.511c0-13.571,11.001-24.572,24.572-24.572h0&#10;&#9;&#9;c13.571,0,24.572,11.001,24.572,24.572v60.411c0,15.27,12.379,27.649,27.649,27.649h0c15.27,0,27.649-12.379,27.649-27.649v-20.562&#10;&#9;&#9;" fill="none" fill-opacity="1" stroke="#f8a2ab" stroke-opacity="1" data-original-stroke-color="#000000ff" stroke-width="20" data-original-stroke-width="20"/>
	<path style="stroke-linecap: round; stroke-linejoin: round; stroke-miterlimit: 10;" d="&#10;&#9;&#9;M291.174,337.62v85.211H171.382V285.004c1.668,0.329,3.395,0.499,5.153,0.499c7.559,0,14.4-3.066,19.363-8.019&#10;&#9;&#9;c4.953-4.953,8.019-11.793,8.019-19.353v-6.511c0-13.571,10.995-24.576,24.566-24.576c6.79,0,12.932,2.756,17.376,7.2&#10;&#9;&#9;c4.454,4.444,7.2,10.595,7.2,17.376v60.405c0,15.279,12.383,27.651,27.651,27.651C284.413,339.678,287.948,338.949,291.174,337.62z&#10;&#9;&#9;" fill="none" fill-opacity="1" stroke="#f8a2ab" stroke-opacity="1" data-original-stroke-color="#000000ff" stroke-width="20" data-original-stroke-width="20"/>
	<path style="stroke-linecap: round; stroke-linejoin: round; stroke-miterlimit: 10;" d="&#10;&#9;&#9;M231.277,10l-29.674,40.226c-6.109,7.102-9.468,16.158-9.468,25.526v0c0,21.618,17.525,39.142,39.142,39.142l0,0l0,0&#10;&#9;&#9;c21.618,0,39.142-17.525,39.142-39.142v0c0-9.367-3.359-18.424-9.468-25.526L231.277,10z" fill="none" fill-opacity="1" stroke="#f8a2ab" stroke-opacity="1" data-original-stroke-color="#000000ff" stroke-width="20" data-original-stroke-width="20"/>
	
		<line style="stroke-linecap: round; stroke-linejoin: round; stroke-miterlimit: 10;" x1="308.355" y1="247.536" x2="308.355" y2="247.536" fill="none" fill-opacity="1" stroke="#f8a2ab" stroke-opacity="1" data-original-stroke-color="#000000ff" stroke-width="20" data-original-stroke-width="20"/>
</g></g></svg>