<svg version="1.1" id="svg1659" xml:space="preserve" width="300" height="300" viewBox="0 0 682.66669 682.66669" xmlns="http://www.w3.org/2000/svg" xmlns:svg="http://www.w3.org/2000/svg" xmlns:xlink="http://www.w3.org/1999/xlink" xmlns:svgjs="http://svgjs.dev/svgjs"><g width="100%" height="100%" transform="matrix(1,0,0,1,0,0)"><defs id="defs1663"><clipPath clipPathUnits="userSpaceOnUse" id="clipPath1673"><path d="M 0,512 H 512 V 0 H 0 Z" id="path1671" fill="#f8a2ab" fill-opacity="1" data-original-color="#000000ff" stroke="none" stroke-opacity="1"/></clipPath></defs><g id="g1665" transform="matrix(1.3333333,0,0,-1.3333333,0,682.66667)"><g id="g1667"><g id="g1669" clip-path="url(#clipPath1673)"><g id="g1675" transform="translate(56.2886,231.1768)"><path d="M 0,0 C 19.993,0 19.993,15.977 39.986,15.977 59.979,15.977 59.979,0 79.973,0 99.952,0 99.952,15.977 119.932,15.977 139.894,15.977 139.894,0 159.856,0 179.829,0 179.829,15.977 199.802,15.977 219.77,15.977 219.77,0 239.737,0 259.705,0 259.705,15.977 279.672,15.977 299.64,15.977 299.64,0 319.607,0 339.566,0 339.566,15.977 359.525,15.977 379.474,15.977 379.474,0 399.423,0 l -45.225,-211.047 c -1.578,-7.367 -8.088,-12.63 -15.622,-12.63 H 60.847 c -7.534,0 -14.044,5.263 -15.622,12.63 z" style="stroke-linecap: round; stroke-linejoin: round; stroke-miterlimit: 10; stroke-dasharray: none;" id="path1677" fill="none" fill-opacity="1" stroke="#f8a2ab" stroke-opacity="1" data-original-stroke-color="#000000ff" stroke-width="15" data-original-stroke-width="15"/></g><g id="g1679" transform="translate(150.0962,71.4058)"><path d="M 0,0 -21.912,159.771" style="stroke-linecap: round; stroke-linejoin: round; stroke-miterlimit: 10; stroke-dasharray: none;" id="path1681" fill="none" fill-opacity="1" stroke="#f8a2ab" stroke-opacity="1" data-original-stroke-color="#000000ff" stroke-width="15" data-original-stroke-width="15"/></g><g id="g1683" transform="translate(158.8604,7.5)"><path d="M 0,0 -4.383,31.958" style="stroke-linecap: round; stroke-linejoin: round; stroke-miterlimit: 10; stroke-dasharray: none;" id="path1685" fill="none" fill-opacity="1" stroke="#f8a2ab" stroke-opacity="1" data-original-stroke-color="#000000ff" stroke-width="15" data-original-stroke-width="15"/></g><g id="g1687" transform="translate(379.4331,199.2227)"><path d="M 0,0 -26.293,-191.723" style="stroke-linecap: round; stroke-linejoin: round; stroke-miterlimit: 10; stroke-dasharray: none;" id="path1689" fill="none" fill-opacity="1" stroke="#f8a2ab" stroke-opacity="1" data-original-stroke-color="#000000ff" stroke-width="15" data-original-stroke-width="15"/></g><g id="g1691" transform="translate(219.5728,7.5)"><path d="M 0,0 -11.503,223.677" style="stroke-linecap: round; stroke-linejoin: round; stroke-miterlimit: 10; stroke-dasharray: none;" id="path1693" fill="none" fill-opacity="1" stroke="#f8a2ab" stroke-opacity="1" data-original-stroke-color="#000000ff" stroke-width="15" data-original-stroke-width="15"/></g><g id="g1695" transform="translate(303.9307,231.1768)"><path d="M 0,0 -11.503,-223.677" style="stroke-linecap: round; stroke-linejoin: round; stroke-miterlimit: 10; stroke-dasharray: none;" id="path1697" fill="none" fill-opacity="1" stroke="#f8a2ab" stroke-opacity="1" data-original-stroke-color="#000000ff" stroke-width="15" data-original-stroke-width="15"/></g><g id="g1699" transform="translate(221.25,395.6235)"><path d="m 0,0 c -12.596,6.72 -21.169,19.991 -21.169,35.265 0,22.059 17.882,39.942 39.942,39.942 22.06,0 39.942,-17.883 39.942,-39.942 0,-4.988 -0.914,-9.761 -2.583,-14.163" style="stroke-linecap: round; stroke-linejoin: round; stroke-miterlimit: 10; stroke-dasharray: none;" id="path1701" fill="none" fill-opacity="1" stroke="#f8a2ab" stroke-opacity="1" data-original-stroke-color="#000000ff" stroke-width="15" data-original-stroke-width="15"/></g><g id="g1703" transform="translate(133.3906,305.5908)"><path d="M 0,0 C -9.159,-2.006 -17.475,-4.311 -24.678,-7.012 -59.869,-20.208 -58.826,-46.477 -54.499,-62.037" style="stroke-linecap: round; stroke-linejoin: round; stroke-miterlimit: 10; stroke-dasharray: none;" id="path1705" fill="none" fill-opacity="1" stroke="#f8a2ab" stroke-opacity="1" data-original-stroke-color="#000000ff" stroke-width="15" data-original-stroke-width="15"/></g><g id="g1707" transform="translate(318.5762,436.2139)"><path d="M 0,0 C 0,0 84.544,-15.312 73.228,-69.233 64.046,-112.979 -60.749,-112.675 -149.7,-124.6" style="stroke-linecap: round; stroke-linejoin: round; stroke-miterlimit: 10; stroke-dasharray: none;" id="path1709" fill="none" fill-opacity="1" stroke="#f8a2ab" stroke-opacity="1" data-original-stroke-color="#000000ff" stroke-width="15" data-original-stroke-width="15"/></g><g id="g1711" transform="translate(392.8022,370.9746)"><path d="M 0,0 C 0,0 77.887,-39.942 38.944,-126.484" style="stroke-linecap: round; stroke-linejoin: round; stroke-miterlimit: 10; stroke-dasharray: none;" id="path1713" fill="none" fill-opacity="1" stroke="#f8a2ab" stroke-opacity="1" data-original-stroke-color="#000000ff" stroke-width="15" data-original-stroke-width="15"/></g><g id="g1715" transform="translate(253.6733,469.4272)"><path d="m 0,0 c 13.773,11.685 20.331,22.473 23.454,30.098 2.086,5.093 8.584,6.613 12.712,2.972 133.84,-118.05 -215.429,-86.918 -186.951,-204.085" style="stroke-linecap: round; stroke-linejoin: round; stroke-miterlimit: 10; stroke-dasharray: none;" id="path1717" fill="none" fill-opacity="1" stroke="#f8a2ab" stroke-opacity="1" data-original-stroke-color="#000000ff" stroke-width="15" data-original-stroke-width="15"/></g><g id="g1719" transform="translate(144.8271,367.646)"><path d="M 0,0 C 0,0 -8.118,45.882 55.254,71.23" style="stroke-linecap: round; stroke-linejoin: round; stroke-miterlimit: 10; stroke-dasharray: none;" id="path1721" fill="none" fill-opacity="1" stroke="#f8a2ab" stroke-opacity="1" data-original-stroke-color="#000000ff" stroke-width="15" data-original-stroke-width="15"/></g></g></g></g></g></svg>