<svg version="1.1" id="Capa_1" xmlns="http://www.w3.org/2000/svg" xmlns:xlink="http://www.w3.org/1999/xlink" x="0px" y="0px" viewBox="0 0 389.364 389.364" style="enable-background:new 0 0 389.364 389.364;" xml:space="preserve" width="300" height="300" xmlns:svgjs="http://svgjs.dev/svgjs"><g width="100%" height="100%" transform="matrix(1,0,0,1,0,0)"><g>
	<g>
		<path d="M194.822,0C87.303,0,0.142,87.161,0.142,194.68s87.161,194.68,194.68,194.68c20.005,0.204,39.128-8.221,52.48-23.12&#10;&#9;&#9;&#9;c8.526-10.813,11.488-24.999,8-38.32c-4.374-14.128-11.257-27.353-20.32-39.04c-16-23.2-22-35.28-11.92-45.12&#10;&#9;&#9;&#9;c5.944-6.615,14.314-10.54,23.2-10.88c12.4,0,25.44,8,39.28,16c13.84,8,29.6,17.92,45.92,18.56&#10;&#9;&#9;&#9;c36.48,1.36,57.76-26.16,57.76-72.96C389.002,87.194,302.108,0.264,194.822,0z M334.262,251.68h-1.92c-12.16-0.4-24.8-8-38.16-16&#10;&#9;&#9;&#9;c-15.04-9.12-30.64-18.56-47.52-18.56c-13.065,0.261-25.459,5.836-34.32,15.44c-20.8,20.32-4.56,44.32,9.84,65.52&#10;&#9;&#9;&#9;c7.861,10.099,13.948,21.461,18,33.6c2.182,8.574,0.196,17.675-5.36,24.56c-10.366,11.031-24.864,17.236-40,17.12&#10;&#9;&#9;&#9;c-98.66,0-178.64-79.98-178.64-178.64s79.98-178.64,178.64-178.64c98.629,0,178.596,79.931,178.64,178.56&#10;&#9;&#9;&#9;C373.462,211.76,369.702,251.68,334.262,251.68z" fill="#f8a2ab" fill-opacity="1" data-original-color="#000000ff" stroke="none" stroke-opacity="1"/>
	</g>
</g><g>
	<g>
		<path d="M155.622,258.64c-21.826-0.177-39.662,17.373-39.839,39.199c-0.177,21.826,17.373,39.662,39.199,39.839&#10;&#9;&#9;&#9;c21.826,0.177,39.662-17.373,39.839-39.199c0.001-0.106,0.001-0.212,0.001-0.319C194.822,276.458,177.323,258.816,155.622,258.64z&#10;&#9;&#9;&#9; M155.622,321.68c-12.989,0.177-23.661-10.209-23.838-23.198c-0.177-12.989,10.209-23.661,23.198-23.838&#10;&#9;&#9;&#9;c12.989-0.177,23.661,10.209,23.838,23.198c0.001,0.106,0.002,0.212,0.002,0.318C178.823,311.026,168.486,321.505,155.622,321.68z&#10;&#9;&#9;&#9;" fill="#f8a2ab" fill-opacity="1" data-original-color="#000000ff" stroke="none" stroke-opacity="1"/>
	</g>
</g><g>
	<g>
		<path d="M72.182,186.64c-21.826,0-39.52,17.694-39.52,39.52s17.694,39.52,39.52,39.52s39.52-17.694,39.52-39.52&#10;&#9;&#9;&#9;S94.008,186.64,72.182,186.64z M72.262,249.68c-0.027,0-0.053,0-0.08,0v-0.08c-12.99,0-23.52-10.53-23.52-23.52&#10;&#9;&#9;&#9;c0-12.99,10.53-23.52,23.52-23.52c12.99,0,23.52,10.53,23.52,23.52C95.746,239.07,85.252,249.636,72.262,249.68z" fill="#f8a2ab" fill-opacity="1" data-original-color="#000000ff" stroke="none" stroke-opacity="1"/>
	</g>
</g><g>
	<g>
		<path d="M98.582,79.601c-21.826-0.133-39.627,17.453-39.759,39.279c0,0.08-0.001,0.159-0.001,0.239&#10;&#9;&#9;&#9;c0,21.733,17.547,39.388,39.28,39.52c21.826,0.133,39.627-17.453,39.759-39.279C137.994,97.535,120.408,79.734,98.582,79.601z&#10;&#9;&#9;&#9; M98.582,142.718c-12.989,0.132-23.626-10.29-23.759-23.279c-0.001-0.106-0.001-0.212-0.001-0.319&#10;&#9;&#9;&#9;c0.043-12.865,10.415-23.309,23.28-23.44c12.989-0.132,23.626,10.29,23.759,23.279&#10;&#9;&#9;&#9;C121.993,131.948,111.571,142.585,98.582,142.718z" fill="#f8a2ab" fill-opacity="1" data-original-color="#000000ff" stroke="none" stroke-opacity="1"/>
	</g>
</g><g>
	<g>
		<path d="M192.182,38.32c-21.826,0-39.52,17.694-39.52,39.52s17.694,39.52,39.52,39.52c21.826,0,39.52-17.694,39.52-39.52&#10;&#9;&#9;&#9;S214.008,38.32,192.182,38.32z M192.182,101.28v0.08c-12.99,0-23.52-10.53-23.52-23.52c0-12.99,10.53-23.52,23.52-23.52&#10;&#9;&#9;&#9;c12.99,0,23.52,10.53,23.52,23.52C215.658,90.798,205.14,101.28,192.182,101.28z" fill="#f8a2ab" fill-opacity="1" data-original-color="#000000ff" stroke="none" stroke-opacity="1"/>
	</g>
</g><g>
	<g>
		<path d="M293.142,87.36c-21.826,0-39.52,17.694-39.52,39.52s17.694,39.52,39.52,39.52s39.52-17.694,39.52-39.52&#10;&#9;&#9;&#9;S314.968,87.36,293.142,87.36z M293.142,150.4c-12.99,0-23.52-10.53-23.52-23.52c0-12.99,10.53-23.52,23.52-23.52&#10;&#9;&#9;&#9;c12.99,0,23.52,10.53,23.52,23.52S306.132,150.4,293.142,150.4z" fill="#f8a2ab" fill-opacity="1" data-original-color="#000000ff" stroke="none" stroke-opacity="1"/>
	</g>
</g><g>
	<g>
		<path d="M187.305,142.637c-0.161,0-0.322,0.001-0.483,0.003c-21.825,0.265-39.302,18.172-39.037,39.997&#10;&#9;&#9;&#9;c0.265,21.825,18.172,39.302,39.997,39.037c21.636-0.263,39.038-17.876,39.04-39.514&#10;&#9;&#9;&#9;C226.823,160.334,209.131,142.639,187.305,142.637z M187.307,205.685c-0.162,0-0.323-0.002-0.485-0.005v-0.08&#10;&#9;&#9;&#9;c-12.987-0.265-23.3-11.008-23.035-23.995c0.265-12.987,11.008-23.3,23.995-23.035c12.829,0.262,23.081,10.758,23.04,23.59&#10;&#9;&#9;&#9;C210.825,195.15,200.296,205.682,187.307,205.685z" fill="#f8a2ab" fill-opacity="1" data-original-color="#000000ff" stroke="none" stroke-opacity="1"/>
	</g>
</g><g>
</g><g>
</g><g>
</g><g>
</g><g>
</g><g>
</g><g>
</g><g>
</g><g>
</g><g>
</g><g>
</g><g>
</g><g>
</g><g>
</g><g>
</g></g></svg>