<svg id="Layer_1" enable-background="new 0 0 55 55" height="300" viewBox="0 0 55 55" width="300" xmlns="http://www.w3.org/2000/svg" version="1.1" xmlns:xlink="http://www.w3.org/1999/xlink" xmlns:svgjs="http://svgjs.dev/svgjs"><g width="100%" height="100%" transform="matrix(1,0,0,1,0,0)"><g id="_x31_28"><g><g><path d="m50.9566727 21.7636585c-.000145.1000347-.0106812 7.4267445-.0100098 6.9599609 0 .0100098 0 .0300293-.0100098.0400391v2.5999756c-.0099487.3800049-.2599487.7700214-.7699585 1.0599995l-12.0300293 6.9899902c-1.0199585.6000366-2.6799927.6000366-3.7099609 0l-.9800415-.5700073v.0500488c0 .0299683 0 .0699463-.0100098.0999756l-.0099487 2.539978c-.0100098.3800049-.2600098.7700195-.7700195 1.0700073l-12.0299683 6.9799805c-1.0100098.6000366-2.6700439.6000366-3.710022 0l-12.0999751-6.9799804c-.5200195-.2999878-.7800293-.6900025-.7800293-1.0800171.0002241-.104332.0213056-9.9185925.0200195-9.3199463-.6496243-.3971767-.6765013-1.26688-.3600464-1.9300556.1300049-.25.3800049-.3899536.6500244-.4799805.1162992-.1454182-.1505876.0613155 6.9400029-4.0800171-.2399902-.2399902-.3599854-.5-.3599854-.7699585.0002232-.1043301.0212412-9.9086418.0199585-9.3099966-.1799927-.1199951-.3399658-.2900391-.4299927-.4800415-.2199707-.4599609-.1399536-1.0199585.0700073-1.4599609.1199951-.25.3699951-.3900146.6400146-.4800415.039978-.0499878.0999756-.0999756.1699829-.1399536l13.7200308-7.960022c.3200073-.2000122.7299805-.2000122 1.0599976-.0100098l13.8099976 7.9799805c.0199585.0100098.0499878.0300293.0699463.0500488.2200317.1199951.4300537.2600098.5900269.4499512.0599976.0700073.1099854.1500244.1400146.2400513l9.8200073 5.6599722c.039978.0200195.0700073.0499878.0999756.0800171.210022.0999756.4100342.2399902.5599976.4199829.419983.5300292.2399904 1.4100341-.3099974 1.7800292z" fill="#aa6256" fill-opacity="1" data-original-color="#aa6256ff" stroke="none" stroke-opacity="1"/></g></g><g><g><g><g><g><path d="m50.9601517 19.8611584-.0278778 11.4996319c-.0069809.3835468-.2580261.7740707-.7670937 1.0669556l-12.0296402 6.987667c-1.0181732.5997276-2.6779213.5997276-3.7100143 0l-12.1063404-6.9876671c-.5160904-.2998657-.7741146-.6903896-.7741146-1.0809155l.0279236-11.4996319c0 .3905258.2580223.7810516.7740707 1.0809155l12.1063385 6.9946461c1.0321388.5927486 2.6918411.5927486 3.7100182 0 12.5778275-7.3412342 12.5571442-7.1075783 12.7479095-7.7756977.0349006-.090662.0488205-.188303.0488205-.2859039z" fill="#8a4852" fill-opacity="1" data-original-color="#8a4852ff" stroke="none" stroke-opacity="1"/></g></g><g><g><path d="m50.9483719 24.1989174v4.5264168c-.0069809.3835449-.2580223.7740707-.7670898 1.0669537l-12.0296403 6.9876651c-1.018177.5997276-2.6779213.5997276-3.7100143 0l-12.1063423-6.9876652c-.5160885-.2998638-.7741127-.6903896-.7741127-1.0809155l.000042-4.5264168c0 .3905258.2580242.7810516.7740707 1.0809155l12.1063423 6.9946461c1.032135.5927467 2.6918373.5927467 3.7100143 0l12.0366211-6.9946461c.2942886-.1743908.6170654-.4510574.7112885-.7810516.0349045-.0906601.0488205-.188303.0488205-.285902z" fill="#7f424e" fill-opacity="1" data-original-color="#7f424eff" stroke="none" stroke-opacity="1"/></g></g><g><g><g><path d="m44.8986778 16.9081955c-.1270714-.0449562-.2553253-.0864906-.3850708-.1236153-.7379723-.2111664-1.50951-.2754974-2.2762756-.3110657-6.5799446-.3052197-13.1782379 1.4295826-19.9893894 3.0342426-.3682117.0867481-.8614559.2151222-1.04212.5895672-.2127666.4409828-.2872105 1.0071793-.0715733 1.4608574.2031689.4274406.7007236.7253685 1.1598949.6107216.2984848-.0745277.5544167-.3047047.8619576-.3128452.5162487-.0136623.9703922 1.2378235 1.0867043 1.740984.116312.5031624.2295628 1.098259.6958847 1.3201714.5352497.254715 1.2463226-.1500397 1.7366123.1831093.5990963.4070816.2167358 1.3514709.403635 2.0512562.0252285.0944519.0635738.1883221.1316833.2584572.2010632.2070427.5587254.1189346.7885246-.055666.3567009-.2710209.8627129-1.1477375 2.0664425-.1450119.3907623.32551.757122.7283344 1.2531261.8407249.7429619.1683464 1.5743866-.3683262 2.2499924-.0163422.6330643.3298225.6930542 1.1984138 1.0634384 1.8086376.4260674.7019672 1.5317497 1.0050125 2.0857277.3988781.188015-.2057133.2966766-.4895134.5328293-.6375027.3683243-.2308159.8510551-.024641 1.2076263.2239494.3565674.2485905.7317924.5549812 1.1649132.5183105.562027-.0475845.904377-.6471157 1.0296822-1.1970577.1253052-.5499439.1478119-1.1543846.490242-1.6025829.6374397-.834343 1.9221649-.6425304 2.9180222-.9752884 1.0083389-.3369293 1.6041946-1.9152527 2.6262093-2.208086.6763-.193779 1.4899139-.1312733 1.9717941-.6438389.4379997-.4658871.453434-1.2843685 1.0133133-1.5932827.3029938-.1671772.6768303-.1252174 1.0080147-.225563.7531776-.2282047 1.0803375-1.3045521.5815582-1.9132938-.2287064-.2791252-.5676498-.4397507-.8950081-.5915928-1.387043-.6433678-2.774086-1.2867374-4.161129-1.9301052-.4297637-.1993408-.8611946-.3993111-1.3072624-.557127z" fill="#aa6256" fill-opacity="1" data-original-color="#aa6256ff" stroke="none" stroke-opacity="1"/></g><g><g enable-background="new"><g><g><path d="m50.6043816 20.7260132-13.5026512 7.8468819c-.4582596.2663116-1.0239792.2671146-1.4829941.0021019l-13.5998058-7.8518524c-.4759197-.2747726-.4768925-.9613647-.0017529-1.2374859l13.7136574-7.9695063c.3277473-.1904659.7323456-.1910391 1.0606346-.001503l13.8111572 7.973876c.4759216.2747726.4768944.9613666.0017548 1.2374878z" fill="#bf7d5a" fill-opacity="1" data-original-color="#bf7d5aff" stroke="none" stroke-opacity="1"/></g></g></g></g></g></g><g><g><g><g><path d="m40.80336 31.8552837c.0011864.4192371-.5462685.7302532-.5474434.3160648-.0004921-.1734676.5462685-.7302989.5474434-.3160648z" fill="#aa6256" fill-opacity="1" data-original-color="#aa6256ff" stroke="none" stroke-opacity="1"/></g></g><g><g><path d="m41.2630577 32.9183159c.0007782.2738152-.356781.4769516-.3575478.2064323-.0003204-.1132965.3567811-.4769783.3575478-.2064323z" fill="#aa6256" fill-opacity="1" data-original-color="#aa6256ff" stroke="none" stroke-opacity="1"/></g></g><g><g><path d="m39.115715 34.1470184c.0988541-.0570755.1789093-.0108681.1792297.1024284.0003204.1135941-.0792122.2516479-.1780663.3087196s-.1791611.0113029-.1794853-.1022873c-.0003203-.1132964.0794679-.251789.1783219-.3088607z" fill="#aa6256" fill-opacity="1" data-original-color="#aa6256ff" stroke="none" stroke-opacity="1"/></g></g><g><g><path d="m37.0414352 33.3576393c.0988541-.0570717.1789093-.0108681.1792297.1024284.0003242.1135941-.0792084.2516479-.1780624.3087196-.0988541.0570755-.1791649.0113029-.1794853-.1022873-.0003242-.1132964.079464-.251789.178318-.3088607z" fill="#aa6256" fill-opacity="1" data-original-color="#aa6256ff" stroke="none" stroke-opacity="1"/></g></g><g><g><path d="m40.2998505 34.3430138c.0988541-.0570755.1789055-.0108681.1792297.1024284.0003204.1135902-.0792122.2516441-.1780663.3087196-.0988541.0570717-.1791611.0113029-.1794853-.1022873-.0003204-.1132965.0794678-.2517891.1783219-.3088607z" fill="#aa6256" fill-opacity="1" data-original-color="#aa6256ff" stroke="none" stroke-opacity="1"/></g></g><g><g><path d="m41.837944 33.5822716c.0007782.2738152-.356781.4769478-.3575478.2064323-.0003204-.1133003.3567811-.4769821.3575478-.2064323z" fill="#aa6256" fill-opacity="1" data-original-color="#aa6256ff" stroke="none" stroke-opacity="1"/></g></g><g><g><path d="m39.115715 35.2356262c.0988541-.0570717.1789093-.0108643.1792297.1024323.0007744.2738152-.3567848.4769478-.3575516.2064323-.0003203-.1133003.0794679-.2517891.1783219-.3088646z" fill="#aa6256" fill-opacity="1" data-original-color="#aa6256ff" stroke="none" stroke-opacity="1"/></g></g><g><g><path d="m37.8246765 35.8525429c.0007744.273819-.3567848.4769516-.3575516.2064323-.0007743-.2739601.3567849-.4769783.3575516-.2064323z" fill="#aa6256" fill-opacity="1" data-original-color="#aa6256ff" stroke="none" stroke-opacity="1"/></g></g></g><g><g><g><path d="m43.0197182 30.58885c.0011864.4192371-.5462685.7302532-.5474434.3160648-.0004921-.1734676.5462684-.7302989.5474434-.3160648z" fill="#aa6256" fill-opacity="1" data-original-color="#aa6256ff" stroke="none" stroke-opacity="1"/></g><g><path d="m43.0197182 32.9450798c.0011864.4192352-.5462685.7302513-.5474434.3160629-.0004921-.1734695.5462684-.7302971.5474434-.3160629z" fill="#aa6256" fill-opacity="1" data-original-color="#aa6256ff" stroke="none" stroke-opacity="1"/></g><g><path d="m37.9189262 34.1997108c.1513557-.0873833.2739258-.0166397.2744179.1568298.0004921.1739197-.1212769.3852921-.2726326.4726791-.1513557.0873833-.2743149.0173073-.274807-.1566124-.0004921-.1734694.121666-.3855094.2730217-.4728965z" fill="#aa6256" fill-opacity="1" data-original-color="#aa6256ff" stroke="none" stroke-opacity="1"/></g><g><path d="m38.629406 32.7066841c.1513557-.0873833.2739296-.0166359.2744179.1568336.0004959.1739159-.1212769.3852921-.2726326.4726753-.1513519.0873833-.2743149.0173073-.274807-.1566124-.0004921-.1734695.1216697-.3855094.2730217-.4728965z" fill="#aa6256" fill-opacity="1" data-original-color="#aa6256ff" stroke="none" stroke-opacity="1"/></g></g><g><g><path d="m43.4794159 31.6518822c.0007744.2738171-.3567848.4769478-.3575516.2064323-.0003204-.1132984.3567848-.4769802.3575516-.2064323z" fill="#aa6256" fill-opacity="1" data-original-color="#aa6256ff" stroke="none" stroke-opacity="1"/></g></g><g><g><path d="m39.7999115 33.1275444c.0988541-.0570717.1789055-.0108681.1792297.1024284.0003204.1135941-.0792122.2516479-.1780663.3087196-.0988541.0570755-.1791611.0113029-.1794853-.1022873-.0003204-.1132964.0794678-.251789.1783219-.3088607z" fill="#aa6256" fill-opacity="1" data-original-color="#aa6256ff" stroke="none" stroke-opacity="1"/></g></g><g><g><path d="m44.0543022 32.3158379c.0007782.2738152-.356781.4769478-.3575478.2064323-.0003242-.1133003.3567811-.4769821.3575478-.2064323z" fill="#aa6256" fill-opacity="1" data-original-color="#aa6256ff" stroke="none" stroke-opacity="1"/></g></g></g><g><g><g><path d="m45.2360725 29.3224163c.0011902.4192371-.5462685.7302532-.5474396.3160648-.000492-.1734695.5462647-.730299.5474396-.3160648z" fill="#aa6256" fill-opacity="1" data-original-color="#aa6256ff" stroke="none" stroke-opacity="1"/></g><g><path d="m45.2360725 31.6786442c.0011902.4192371-.5462685.7302532-.5474396.3160648-.000492-.1734676.5462647-.730299.5474396-.3160648z" fill="#aa6256" fill-opacity="1" data-original-color="#aa6256ff" stroke="none" stroke-opacity="1"/></g></g><g><g><path d="m45.6957703 30.3854485c.0007782.2738152-.356781.4769497-.3575478.2064304-.0003204-.1132965.356781-.4769783.3575478-.2064304z" fill="#aa6256" fill-opacity="1" data-original-color="#aa6256ff" stroke="none" stroke-opacity="1"/></g></g><g><g><path d="m46.2706604 31.0494022c.0007744.2738171-.3567848.4769497-.3575516.2064323-.0003204-.1132983.3567848-.4769801.3575516-.2064323z" fill="#aa6256" fill-opacity="1" data-original-color="#aa6256ff" stroke="none" stroke-opacity="1"/></g></g></g><g><g><g><path d="m47.4524307 28.0559807c.0011864.419239-.5462685.7302551-.5474434.3160667-.0004921-.1734695.5462685-.7303009.5474434-.3160667z" fill="#aa6256" fill-opacity="1" data-original-color="#aa6256ff" stroke="none" stroke-opacity="1"/></g><g><path d="m47.4524307 30.4122105c.0011864.4192371-.5462685.7302532-.5474434.3160648-.0004921-.1734695.5462685-.730299.5474434-.3160648z" fill="#aa6256" fill-opacity="1" data-original-color="#aa6256ff" stroke="none" stroke-opacity="1"/></g></g><g><g><path d="m47.9121284 29.1190147c.0007782.2738152-.356781.4769478-.3575478.2064304-.0003203-.1132983.3567811-.4769782.3575478-.2064304z" fill="#aa6256" fill-opacity="1" data-original-color="#aa6256ff" stroke="none" stroke-opacity="1"/></g></g><g><g><path d="m48.4870148 29.7829685c.0007782.2738152-.356781.4769497-.3575478.2064304-.0003204-.1132965.356781-.4769782.3575478-.2064304z" fill="#aa6256" fill-opacity="1" data-original-color="#aa6256ff" stroke="none" stroke-opacity="1"/></g></g></g><g><g><g><path d="m49.6687889 26.789547c.0011864.4192371-.5462685.7302532-.5474434.3160648-.0004921-.1734676.5462685-.730299.5474434-.3160648z" fill="#aa6256" fill-opacity="1" data-original-color="#aa6256ff" stroke="none" stroke-opacity="1"/></g><g><path d="m49.394371 28.988945c.1513519-.0873852.2739258-.0166378.2744179.1568298.0011864.419239-.5462685.7302551-.5474434.3160667-.0004921-.1734695.1216698-.3855113.2730255-.4728965z" fill="#aa6256" fill-opacity="1" data-original-color="#aa6256ff" stroke="none" stroke-opacity="1"/></g></g><g><g><path d="m50.1284866 27.8525791c.0007744.2738171-.3567848.4769497-.3575516.2064323-.0003204-.1132984.3567849-.4769801.3575516-.2064323z" fill="#aa6256" fill-opacity="1" data-original-color="#aa6256ff" stroke="none" stroke-opacity="1"/></g></g><g><g><path d="m48.7519951 28.2329845c.0007744.2738152-.356781.4769497-.3575478.2064304-.0003242-.1132964.356781-.4769782.3575478-.2064304z" fill="#aa6256" fill-opacity="1" data-original-color="#aa6256ff" stroke="none" stroke-opacity="1"/></g></g><g><g><path d="m46.628212 29.4994183c.0007744.2738171-.3567848.4769497-.3575516.2064323-.0003204-.1132984.3567848-.4769802.3575516-.2064323z" fill="#aa6256" fill-opacity="1" data-original-color="#aa6256ff" stroke="none" stroke-opacity="1"/></g></g><g><g><path d="m44.3610497 30.6155434c.0007744.2738152-.356781.4769497-.3575516.2064304-.0003205-.1132965.3567848-.4769783.3575516-.2064304z" fill="#aa6256" fill-opacity="1" data-original-color="#aa6256ff" stroke="none" stroke-opacity="1"/></g></g><g><g><path d="m42.1954956 31.9580784c.0007782.2738171-.356781.4769497-.3575478.2064304-.0003204-.1132965.3567811-.4769783.3575478-.2064304z" fill="#aa6256" fill-opacity="1" data-original-color="#aa6256ff" stroke="none" stroke-opacity="1"/></g></g></g></g><g><g><g><g><path d="m31.716114 31.8552837c-.0011883.4192371.5462685.7302532.5474396.3160648.0004921-.1734676-.5462665-.7302989-.5474396-.3160648z" fill="#aa6256" fill-opacity="1" data-original-color="#aa6256ff" stroke="none" stroke-opacity="1"/></g></g><g><g><path d="m33.3984032 32.8635178c-.0011902.4192352.5462646.7302513.5474396.3160629.000492-.1734696-.5462647-.7302971-.5474396-.3160629z" fill="#aa6256" fill-opacity="1" data-original-color="#aa6256ff" stroke="none" stroke-opacity="1"/></g></g><g><g><path d="m31.2564144 32.9183159c-.0007763.2738152.3567829.4769516.3575497.2064323.0003204-.1132965-.3567829-.4769783-.3575497-.2064323z" fill="#aa6256" fill-opacity="1" data-original-color="#aa6256ff" stroke="none" stroke-opacity="1"/></g></g><g><g><path d="m33.1020317 34.6414375c-.0007744.2738152.3567848.4769478.3575516.2064323.0003204-.1132964-.3567848-.4769782-.3575516-.2064323z" fill="#aa6256" fill-opacity="1" data-original-color="#aa6256ff" stroke="none" stroke-opacity="1"/></g></g><g><g><path d="m30.6815281 33.5822716c-.0007763.2738152.356781.4769478.3575478.2064323.0003223-.1133003-.3567811-.4769821-.3575478-.2064323z" fill="#aa6256" fill-opacity="1" data-original-color="#aa6256ff" stroke="none" stroke-opacity="1"/></g></g></g><g><g><g><path d="m29.4997559 30.58885c-.0011883.4192371.5462685.7302532.5474415.3160648.000492-.1734676-.5462666-.7302989-.5474415-.3160648z" fill="#aa6256" fill-opacity="1" data-original-color="#aa6256ff" stroke="none" stroke-opacity="1"/></g><g><path d="m29.4997559 32.9450798c-.0011883.4192352.5462685.7302513.5474415.3160629.000492-.1734695-.5462666-.7302971-.5474415-.3160629z" fill="#aa6256" fill-opacity="1" data-original-color="#aa6256ff" stroke="none" stroke-opacity="1"/></g><g><path d="m31.8099689 34.2684402c-.0011883.419239.5462666.7302551.5474415.3160667.0004921-.1734695-.5462665-.7303008-.5474415-.3160667z" fill="#aa6256" fill-opacity="1" data-original-color="#aa6256ff" stroke="none" stroke-opacity="1"/></g><g><path d="m33.7862511 35.5676498c-.0011902.4192352.5462646.7302513.5474396.3160629.000492-.1734695-.5462685-.730297-.5474396-.3160629z" fill="#aa6256" fill-opacity="1" data-original-color="#aa6256ff" stroke="none" stroke-opacity="1"/></g></g><g><g><path d="m29.0400581 31.6518822c-.0007763.2738171.3567829.4769478.3575497.2064323.0003204-.1132984-.3567829-.4769802-.3575497-.2064323z" fill="#aa6256" fill-opacity="1" data-original-color="#aa6256ff" stroke="none" stroke-opacity="1"/></g></g><g><g><path d="m32.5403328 33.2299728c-.0007744.273819.356781.4769516.3575516.2064323.0003204-.1132964-.3567849-.4769782-.3575516-.2064323z" fill="#aa6256" fill-opacity="1" data-original-color="#aa6256ff" stroke="none" stroke-opacity="1"/></g></g><g><g><path d="m33.7670708 34.3232422c-.0007744.2738152.356781.4769478.3575478.2064285.0003242-.1132965-.3567811-.4769783-.3575478-.2064285z" fill="#aa6256" fill-opacity="1" data-original-color="#aa6256ff" stroke="none" stroke-opacity="1"/></g></g><g><g><path d="m28.4651699 32.3158379c-.0007763.2738152.3567829.4769478.3575497.2064323.0003223-.1133003-.3567829-.4769821-.3575497-.2064323z" fill="#aa6256" fill-opacity="1" data-original-color="#aa6256ff" stroke="none" stroke-opacity="1"/></g></g></g><g><g><g><path d="m27.5578175 29.1655846c-.1513538-.0873833-.2739258-.0166378-.2744179.1568317-.0004921.1739178.1212788.3852921.2726326.4726753.1513557.0873852.2743168.0173073.2748089-.1566105.0004921-.1734695-.1216698-.3855114-.2730236-.4728965z" fill="#aa6256" fill-opacity="1" data-original-color="#aa6256ff" stroke="none" stroke-opacity="1"/></g><g><path d="m27.2833996 31.6786442c-.0011883.4192371.5462666.7302532.5474415.3160648.0004921-.1734676-.5462666-.730299-.5474415-.3160648z" fill="#aa6256" fill-opacity="1" data-original-color="#aa6256ff" stroke="none" stroke-opacity="1"/></g></g><g><g><path d="m27.0029316 30.2830181c-.0988541-.0570736-.1789093-.0108681-.1792297.1024303-.0003223.1135902.0792103.2516441.1780624.3087177.0988541.0570736.179163.0113049.1794853-.1022873.0003224-.1132964-.0794639-.2517871-.178318-.3088607z" fill="#aa6256" fill-opacity="1" data-original-color="#aa6256ff" stroke="none" stroke-opacity="1"/></g></g><g><g><path d="m26.4280434 30.9469719c-.0988541-.0570736-.1789093-.0108662-.1792297.1024303-.0003223.1135921.0792103.251646.1780643.3087196.0988541.0570717.179163.0113029.1794853-.1022873.0003204-.1132983-.0794659-.251789-.1783199-.3088626z" fill="#aa6256" fill-opacity="1" data-original-color="#aa6256ff" stroke="none" stroke-opacity="1"/></g></g></g><g><g><g><path d="m25.3414612 27.8991508c-.1513557-.0873852-.2739277-.0166397-.2744179.1568298-.000494.1739197.1212788.3852921.2726326.4726772s.2743149.0173073.2748089-.1566105c.0004921-.1734694-.1216698-.3855113-.2730236-.4728965z" fill="#aa6256" fill-opacity="1" data-original-color="#aa6256ff" stroke="none" stroke-opacity="1"/></g><g><path d="m25.3414612 30.2553787c-.1513557-.0873833-.2739277-.0166378-.2744179.1568317-.000494.1739178.1212788.3852921.2726326.4726753.1513538.0873852.2743149.0173073.2748089-.1566105.0004921-.1734694-.1216698-.3855113-.2730236-.4728965z" fill="#aa6256" fill-opacity="1" data-original-color="#aa6256ff" stroke="none" stroke-opacity="1"/></g></g><g><g><path d="m24.7865734 29.0165844c-.0988541-.0570736-.1789074-.0108681-.1792297.1024303-.0003223.1135902.0792103.2516441.1780643.3087177s.179163.0113029.1794853-.1022873c.0003205-.1132983-.0794658-.251789-.1783199-.3088607z" fill="#aa6256" fill-opacity="1" data-original-color="#aa6256ff" stroke="none" stroke-opacity="1"/></g></g><g><g><path d="m24.2116871 29.6805382c-.0988541-.0570736-.1789093-.0108681-.1792297.1024303-.0003223.1135902.0792103.2516441.1780643.3087177s.179163.0113049.1794834-.1022873c.0003224-.1132965-.0794639-.2517871-.178318-.3088607z" fill="#aa6256" fill-opacity="1" data-original-color="#aa6256ff" stroke="none" stroke-opacity="1"/></g></g></g><g><g><g><path d="m22.8506851 26.789547c-.0011883.4192371.5462685.7302532.5474415.3160648.0004921-.1734676-.5462666-.730299-.5474415-.3160648z" fill="#aa6256" fill-opacity="1" data-original-color="#aa6256ff" stroke="none" stroke-opacity="1"/></g><g><path d="m23.125103 28.988945c-.1513538-.0873852-.2739258-.0166378-.2744179.1568298-.0004921.1739197.1212788.3852921.2726345.4726772.1513538.0873852.2743149.0173073.274807-.1566105.0004921-.1734695-.1216679-.3855113-.2730236-.4728965z" fill="#aa6256" fill-opacity="1" data-original-color="#aa6256ff" stroke="none" stroke-opacity="1"/></g></g><g><g><path d="m22.3909874 27.8525791c-.0007763.2738171.3567829.4769497.3575497.2064323.0003204-.1132984-.3567829-.4769801-.3575497-.2064323z" fill="#aa6256" fill-opacity="1" data-original-color="#aa6256ff" stroke="none" stroke-opacity="1"/></g></g><g><g><path d="m23.9467087 28.1305542c-.0988541-.0570736-.1789093-.0108681-.1792316.1024303-.0003204.1135902.0792122.2516441.1780643.3087177.0988541.0570736.179163.0113049.1794853-.1022873.0003223-.1132964-.0794659-.2517871-.178318-.3088607z" fill="#aa6256" fill-opacity="1" data-original-color="#aa6256ff" stroke="none" stroke-opacity="1"/></g></g><g><g><path d="m26.0704918 29.3969879c-.0988541-.0570736-.1789074-.0108662-.1792297.1024303-.0003223.1135921.0792103.251646.1780643.3087196.0988541.0570717.179163.0113029.1794853-.1022873.0003205-.1132983-.0794658-.251789-.1783199-.3088626z" fill="#aa6256" fill-opacity="1" data-original-color="#aa6256ff" stroke="none" stroke-opacity="1"/></g></g><g><g><path d="m28.3376541 30.513113c-.0988541-.0570736-.1789093-.0108681-.1792297.1024303-.0007763.2738152.356781.4769497.3575497.2064304.0003204-.1132964-.0794659-.2517871-.17832-.3088607z" fill="#aa6256" fill-opacity="1" data-original-color="#aa6256ff" stroke="none" stroke-opacity="1"/></g></g><g><g><path d="m30.3239765 31.9580784c-.0007763.2738171.3567829.4769497.3575497.2064304.0003204-.1132965-.3567829-.4769783-.3575497-.2064304z" fill="#aa6256" fill-opacity="1" data-original-color="#aa6256ff" stroke="none" stroke-opacity="1"/></g></g></g></g><g><g><path d="m39.2775307 15.9355888c-.073307.4272747-.8494873.6490421-1.731945.4976425-.8824615-.1513996-1.540287-.619194-1.46698-1.0464697s.8494453-.6490965 1.7319069-.4976969c.8824577.1514007 1.5403251.6192485 1.4670181 1.0465241z" fill="#8a4852" fill-opacity="1" data-original-color="#8a4852ff" stroke="none" stroke-opacity="1"/></g><g><path d="m39.2690926 15.7753668c-.2668953-.2045698-.6582298-.3646755-1.1118851-.4447546-.8806076-.1512012-1.6545296.0711756-1.7345543.4981222-.0089035.0533686-.0089035.1067371.0089035.1601057-.2490883-.1779127-.3913841-.4002905-.3558235-.6048594.0800781-.4269476.8539467-.6493244 1.7345505-.4981232.764965.1334477 1.3698234.5070268 1.4588089.8895093z" fill="#aa6256" fill-opacity="1" data-original-color="#aa6256ff" stroke="none" stroke-opacity="1"/></g><g><path d="m41.2896957 18.3815174c.3376503-.277914.8053284-.3323784 1.2425308-.3223248.1544914.0035534.3282394.0232677.42416.1444263.0381432.0481834.0591583.1074333.0776863.166029.0371552.1174946.0669594.2373123.0891876.3585186.0146484.0798988.0256996.1641769-.0011406.2408466-.0185471.05299-.0540009.0983906-.0925522.139204-.0939102.0994225-.2100372.1777401-.3374062.2275505-.2060318.0805702-.4329529.0851574-.6541748.083559-.1063766-.0007687-.2138481-.0028629-.31707-.0286064-.212822-.0530777-.3967056-.2112675-.4809761-.4137783-.0675583-.162344-.0794792-.3011017-.0301437-.4698792.0104371-.0357092.0798989-.1255453.0798989-.1255453z" fill="#8a4852" fill-opacity="1" data-original-color="#8a4852ff" stroke="none" stroke-opacity="1"/></g><g><path d="m43.0405998 18.4083328c-.0444641-.0089054-.0889816-.0089054-.1334457-.0089054-.4358521-.0089035-.9072647.044466-1.2452812.3202114 0 0-.0622711.0889282-.0800781.1245441-.0444641.1690083-.0355606.311306.0355606.4714108.0089035.0178089.0089035.0356159.0267105.0445194-.1779137-.0711765-.329113-.2046242-.4002914-.3825359-.0711746-.1601067-.0800247-.3024025-.0355606-.4714127.0089035-.0355606.0800285-.1245441.0800285-.1245441.3380165-.2757454.8094826-.329113 1.2453308-.3202095.1512032 0 .3291168.017807.4269485.1422977.035614.0445175.0533676.1067371.0711746.1690083 0 .0089035.0089035.0267105.0089035.0356159z" fill="#aa6256" fill-opacity="1" data-original-color="#aa6256ff" stroke="none" stroke-opacity="1"/></g><g><path d="m30.6753979 18.2332649c.3376503-.277914.8053303-.3323765 1.2425308-.3223228.1544895.0035534.3282413.0232677.4241619.1444263.0381432.0481815.0591583.1074333.0776863.1660271.0371513.1174946.0669594.2373123.0891838.3585205.0146523.0798969.0257034.1641769-.0011368.2408447-.0185471.05299-.0540047.0983906-.092556.1392059-.0939064.0994225-.2100372.1777401-.3374062.2275486-.2060299.0805721-.432951.0851574-.654171.083559-.1063786-.0007687-.2138481-.002861-.31707-.0286045-.2128239-.0530777-.3967056-.2112694-.480978-.4137783-.0675564-.162344-.0794773-.3011036-.0301437-.4698811.0104371-.0357073.0798989-.1255454.0798989-.1255454z" fill="#8a4852" fill-opacity="1" data-original-color="#8a4852ff" stroke="none" stroke-opacity="1"/></g><g><path d="m32.4263039 18.2600803c-.0444641-.0089035-.0889816-.0089035-.1334457-.0089035-.4358521-.0089035-.9072647.0444641-1.2452812.3202095 0 0-.062273.0889301-.08008.1245441-.0444641.1690102-.0355606.3113079.0355606.4714127.0089035.017807.0089035.035614.0267124.0445194-.1779137-.0711765-.3291149-.2046242-.4002914-.3825378-.0711746-.1601048-.0800247-.3024025-.0355606-.4714108.0089035-.0355606.0800266-.1245441.0800266-.1245441.3380165-.2757454.8094826-.3291149 1.2453327-.3202114.1512032 0 .329113.0178089.4269485.1422977.035614.0445194.0533676.1067371.0711746.1690102 0 .0089035.0089035.0267105.0089035.035614z" fill="#aa6256" fill-opacity="1" data-original-color="#aa6256ff" stroke="none" stroke-opacity="1"/></g><g><path d="m38.2575684 19.4028378c.2013779.0777931.3682823.3178177.3183899.7223625-.0135994.1102715-.045723.1713581-.2336006.2013607-.4741249.0757141-1.5964928.1712093-1.8792534-.217205-.1215973-.1670341-.1270561-.4653587.027771-.6180305.1272545-.1254883.337326-.1235027.5030594-.1271648.1367797-.0030252 1.1156158-.0185034 1.2636337.0386771z" fill="#8a4852" fill-opacity="1" data-original-color="#8a4852ff" stroke="none" stroke-opacity="1"/></g><g><path d="m38.5523262 19.7490215c-.1469307-.0652485-.2789268-.0448856-1.2575874-.0448856-.1571388.0111694-.370472 0-.5051994.1347294-.1010818.1010113-.1347313.291935-.0898438.4490738-.3465424-.1153584-.4163208-.5786152-.2133331-.7971363.1347313-.12356.3368225-.12356.5052681-.12356.1014404-.0034809 1.0968704-.0236187 1.2687607.0337162.1347275.0561256.2245712.1684475.2806969.3031769-.0000001.0111694.011238.0336475.011238.0448856z" fill="#aa6256" fill-opacity="1" data-original-color="#aa6256ff" stroke="none" stroke-opacity="1"/></g><g><path d="m43.0654297 21.723896c.2013779.0777931.3682823.3178177.3183899.7223625-.0135994.1102715-.045723.1713581-.2336006.2013607-.4741249.0757141-1.5964928.1712093-1.8792534-.217205-.1215973-.1670341-.1270561-.4653587.027771-.6180305.1272545-.1254883.337326-.1235027.5030594-.1271648.1367797-.0030251 1.1156158-.0185033 1.2636337.0386771z" fill="#8a4852" fill-opacity="1" data-original-color="#8a4852ff" stroke="none" stroke-opacity="1"/></g><g><path d="m43.3601875 22.0700798c-.1469307-.0652485-.2789268-.0448856-1.2575874-.0448856-.1571388.0111694-.370472 0-.5051994.1347294-.1010818.1010113-.1347313.291935-.0898438.4490738-.3465424-.1153584-.4163208-.5786152-.2133331-.7971363.1347313-.12356.3368225-.12356.5052719-.12356.1014366-.0034809 1.0968704-.0236187 1.2687569.0337162.1347313.0561256.2245712.1684475.2806969.3031769-.0000001.0111694.011238.0336475.011238.0448856z" fill="#aa6256" fill-opacity="1" data-original-color="#aa6256ff" stroke="none" stroke-opacity="1"/></g><g><path d="m32.5001488 14.842658c-.1015778.0001802-.2058372.0008392-.3005905.0374422-.1323738.051136-.23176.1695042-.2815399.302392s-.0542183.2791319-.03685.4199705c.0043144.0349846.0102806.0707998.0284119.1010294.0405045.0675335.1274261.0879145.2051888.1003323.3968582.0633755.8010178.0809059 1.20187.0521307.2376442-.0170584.5264626-.0620232.6773834-.2693357.1215973-.1670341.1270561-.4653597-.027771-.6180315-.1272583-.1254873-.337326-.1235018-.5030594-.1271648-.3206712-.0070887-.642296.0006646-.9630433.0012349z" fill="#8a4852" fill-opacity="1" data-original-color="#8a4852ff" stroke="none" stroke-opacity="1"/></g><g><path d="m31.9047985 15.226285c.1010799-.0448866.1909237-.0448866.2919369-.0448866h.9656525c.1571388.0111704.370472 0 .5051994.1347294.1010818.1010122.1347313.2919359.0898438.4490747.1010818-.0336485.179615-.0897741.2358093-.179616.1234894-.1684465.1234894-.4603825-.0224762-.6175213-.1347313-.123559-.3368263-.123559-.5052719-.123559-.3255844-.0111704-.6399956 0-.9655838 0-.101078 0-.2020912 0-.3031731.0337162-.1347313.0561256-.2245731.1684465-.2806988.3031759 0 .0111705-.0112381.0336476-.0112381.0448867z" fill="#aa6256" fill-opacity="1" data-original-color="#aa6256ff" stroke="none" stroke-opacity="1"/></g><g><path d="m33.5500526 22.3550014c.4631195.0996876.7217674.5717144.6029701.8315163-.0626259.1369572-.2126694.208744-.354187.2602425-.5483246.1995392-1.1470871.2587109-1.7238617.1703587-.0806866-.0123596-.161377-.0276661-.2380333-.0557194-.2243919-.0821152-.4036503-.2781925-.4653645-.5090313-.0489616-.1831379-.0220814-.3801384.0647602-.5475407.0843239-.1625462.170826-.1708412.3463783-.17169 1.4085466-.0068092 1.6294023-.0078258 1.7673379.0218639z" fill="#8a4852" fill-opacity="1" data-original-color="#8a4852ff" stroke="none" stroke-opacity="1"/></g><g><path d="m34.0839653 22.7461357c-.1324043-.0793781-.3447952-.0800247-.4981232-.0800247-1.6977577.0089912-1.6490746-.0589123-1.7612114.1779118-.0889282.1601048-.1156406.3557701-.0622711.5425873.017807.062273.0444641.1245441.0711765.1779137-.2223778-.0889835-.4002914-.2846508-.4625626-.5159321-.0444641-.1779118-.017807-.3735771.0622711-.5425873.0889301-.1601582.1779137-.1690083.3469219-.1690083.1003189-.001894 1.5595894-.0307751 1.7701149.0177536.2223779.0533676.4269449.1957207.5336839.391386z" fill="#aa6256" fill-opacity="1" data-original-color="#aa6256ff" stroke="none" stroke-opacity="1"/></g><g><path d="m46.8616295 19.7585487c.1134872-.0002193.2280045-.0003357.3389473.0235443.2336044.0502834.4406738.211832.5462761.4261818.0564651.1146164.0838013.2532425.0306702.369442-.0599251.1310463-.2034912.1997337-.3389015.2490082-.5246544.1909256-1.0975685.2475433-1.6494484.1630058-.0772018-.0118275-.1544113-.0264721-.2277603-.0533142-.2147064-.0785694-.3862267-.2661858-.4452744-.4870586-.0468483-.1752338-.0211296-.3637295.0619659-.5239048.0806808-.1555309.1634483-.1634674.3314247-.1642799.4506912-.0021782.9014092-.0017491 1.3521004-.0026246z" fill="#8a4852" fill-opacity="1" data-original-color="#8a4852ff" stroke="none" stroke-opacity="1"/></g><g><path d="m47.7114449 20.1563435c-.0425453-.0255051-.0936127-.0425453-.136158-.0510635-.1191673-.025507-.2298164-.025507-.3404655-.025507h-1.3532372c-.1702347 0-.2553787.0085201-.3319473.1702328-.0850906.1531944-.1106491.340414-.0595856.5191669.0170403.0595837.0425453.1191673.0681038.1702328-.2127762-.0851421-.3830109-.2723637-.4425926-.49366-.0425453-.1702328-.0170403-.3574524.0595818-.5191669.0850906-.1532459.1702347-.1617126.3319473-.1617126.4510612-.0085201.9021759-.0085201 1.353241-.0085201.1106491 0 .2298164 0 .3404655.025507.2127761.0510634.4085159.1872709.5106468.3744906z" fill="#aa6256" fill-opacity="1" data-original-color="#aa6256ff" stroke="none" stroke-opacity="1"/></g><g><path d="m38.4437675 23.0108528c.0991745-.0001926.1992493-.0002937.2962036.0205746.3872452.0833569.6035194.4780502.5041847.6952877-.0523643.114521-.1778297.1745472-.2961617.2176075-.6444168.2345085-1.3612595.1980362-1.6404762.0958595-.3402519-.1245155-.5209656-.5249367-.3349724-.8834724.0705109-.1359177.1428413-.1428528.2896309-.1435623.3938562-.0019055.7877351-.0015297 1.1815911-.0022946z" fill="#8a4852" fill-opacity="1" data-original-color="#8a4852ff" stroke="none" stroke-opacity="1"/></g><g><path d="m39.1864128 23.3584824c-.0371819-.0222893-.0818062-.0371799-.118988-.0446243-.1041374-.0222912-.2008324-.0222912-.2975273-.0222912h-1.1825867c-.1487656 0-.2231674.0074463-.2900848.1487656-.0743599.1338749-.0966949.2974854-.0520706.4536953.0148926.0520706.0371819.1041393.0595169.1487656-.3350067-.1340523-.5121002-.5107174-.3347092-.8851013.0743599-.1339188.1487656-.1413193.2900848-.1413193.3941803-.0074444.7884026-.0074444 1.1825829-.0074444.0966949 0 .2008362 0 .2975311.0222893.1859436.0446242.3569984.1636542.4462509.3272647z" fill="#aa6256" fill-opacity="1" data-original-color="#aa6256ff" stroke="none" stroke-opacity="1"/></g><g><path d="m27.0987053 19.3956184c-.0897026-.0422955-.1802597-.0848923-.2768974-.1071777-.2034779-.0469227-.4272633.0040283-.5903702.1344166-.0872154.0697193-.1602955.1692486-.1613884.280901-.0012321.1259193.0868587.2335491.1756992.3227921.4838028.4860058 1.1482658.7574482 1.4444447.783535.199028.0175304.4043617-.0672398.5330601-.2200661.1021061-.1212482.15172-.2799244.1454315-.4374886-.0061054-.1529961-.0686417-.1899948-.2012348-.252985-.3557549-.1690026-.7125016-.3359547-1.0687447-.5039273z" fill="#8a4852" fill-opacity="1" data-original-color="#8a4852ff" stroke="none" stroke-opacity="1"/></g><g><path d="m26.2787266 19.3949146c.0431271-.0043888.0898514.0010853.1266727.0101357.1037464.0240517.191288.0651207.2788277.1061897l1.0706196.5022736c.1346798.0631847.1988792.1015263.1994362.2578869.0151424.2212086-.0836525.4010277-.2626209.5422592.1999416.0116138.4041119-.0733204.53339-.2262859.0968437-.1188889.1461525-.276474.1455555-.4328556-.0104408-.1528225-.0746574-.191124-.2025986-.2511463-.3536968-.1741581-.710598-.3415966-1.0674572-.5090141-.0875397-.041069-.1818199-.0853004-.2788277-.1061897-.187294-.0385763-.3927078-.0034658-.5429973.1067465z" fill="#aa6256" fill-opacity="1" data-original-color="#aa6256ff" stroke="none" stroke-opacity="1"/></g></g><g><path d="m35.5531654 33.3743935c0 .1665077-.1332054.3052673-.3052673.3052673-.1665039 0-.3052673-.1387596-.3052673-.3052673 0-.1720619.1387634-.3053017.3052673-.3053017.1720619 0 .3052673.1332397.3052673.3053017z" fill="#aa6256" fill-opacity="1" data-original-color="#aa6256ff" stroke="none" stroke-opacity="1"/></g><g><path d="m36.2547722 35.8217163c-.1665077 0-.3052673-.1387596-.3052673-.3052673 0-.1720619.1387596-.3053017.3052673-.3053017.4066582 0 .4026108.610569 0 .610569z" fill="#aa6256" fill-opacity="1" data-original-color="#aa6256ff" stroke="none" stroke-opacity="1"/></g><g><path d="m36.3021202 34.379425c0 .1124115-.0899277.206089-.206089.206089-.1124115 0-.2060928-.0936775-.2060928-.206089 0-.1161613.0936813-.2061119.2060928-.2061119.1161613 0 .206089.0899506.206089.2061119z" fill="#aa6256" fill-opacity="1" data-original-color="#aa6256ff" stroke="none" stroke-opacity="1"/></g><g><path d="m35.3470764 36.2840347c-.2713356 0-.2734756-.4122047 0-.4122047.1161614 0 .2718086.4122047 0 .4122047z" fill="#aa6256" fill-opacity="1" data-original-color="#aa6256ff" stroke="none" stroke-opacity="1"/></g><g><path d="m36.4849358 36.8595543c-.1124115 0-.2060928-.0936813-.2060928-.2060928 0-.1161613.0936813-.2061119.2060928-.2061119.2745399-.0000001.2718086.4122047 0 .4122047z" fill="#aa6256" fill-opacity="1" data-original-color="#aa6256ff" stroke="none" stroke-opacity="1"/></g><g><path d="m35.2478981 34.8204117c0 .2736664-.4121819.2712135-.4121819 0 0-.1161613.0936813-.2061119.2060928-.2061119.1161614 0 .2060891.0899505.2060891.2061119z" fill="#aa6256" fill-opacity="1" data-original-color="#aa6256ff" stroke="none" stroke-opacity="1"/></g></g><g><g><g><path d="m33.4557571 30.0336018-.0278778 11.4996319c-.0069809.3835449-.2580261.7740707-.7670898 1.0669556l-12.0296421 6.9876633c-1.0181751.5997276-2.6779213.5997276-3.7100163 0l-12.1063399-6.9876634c-.5160899-.2998657-.7741137-.6903915-.7741137-1.0809174l.0279222-11.4996318c0 .3905258.2580237.7810516.7740712 1.0809155l12.1063404 6.994648c1.0321369.5927467 2.6918411.5927467 3.7100163 0 12.5138054-7.3038654 12.1754723-6.9980488 12.4968681-7.3572941.0418396-.0418396.0766983-.0906181.1116028-.1394405.0627365-.0906601.1115608-.1813221.1394386-.278965.034904-.0906602.04882-.1883031.04882-.2859021z" fill="#8a4852" fill-opacity="1" data-original-color="#8a4852ff" stroke="none" stroke-opacity="1"/></g></g><g><g><path d="m33.4439812 34.3713608v4.526413c-.0069809.3835487-.2580261.7740746-.7670937 1.0669556l-12.0296383 6.9876671c-1.018177.5997276-2.6779213.5997276-3.7100163 0l-12.1063408-6.9876672c-.5160899-.2998619-.7741137-.6903877-.7741137-1.0809135l.0000429-4.5264168c0 .3905258.2580237.7810516.7740707 1.0809135l12.1063404 6.994648c1.0321369.5927467 2.6918392.5927467 3.7100163 0l12.0366192-6.994648c.2851448-.168972.4453659-.325161.5718498-.5020866.0627403-.0906601.1115608-.1813202.1394386-.278965.034905-.0906601.0488249-.1883011.0488249-.2859001z" fill="#7f424e" fill-opacity="1" data-original-color="#7f424eff" stroke="none" stroke-opacity="1"/></g></g><g><g><g><path d="m24.7329388 26.645956c-6.5799446-.3052197-13.1782389 1.4295826-19.9893913 3.0342426-.3682103.0867481-.8614552.2151222-1.042119.5895672-.5921152 1.2272224.2292686 2.2860699 1.0883217 2.0715771.2984853-.0745239.5544162-.3047028.8619571-.3128433.5162492-.0136642.9703932 1.2378235 1.0867043 1.7409859.1163116.5031586.2295637 1.098259.6958838 1.3201714.5352507.2547112 1.2463236-.1500397 1.7366133.1831093.7037468.4781914.0717669 1.8323708.5353184 2.3097115.2010622.2070427.5587263.1189346.7885256-.0556641.3567009-.2710228.8627119-1.1477394 2.0664425-.1450119.3907614.3255081.7571211.7283325 1.2531252.8407211.7429609.1683502 1.5743876-.3683243 2.2499914-.0163383.6330662.3298225.6930542 1.19841 1.0634403 1.8086357.4260674.7019691 1.5317478 1.0050125 2.0857277.39888.2747402-.3006058.5549107-1.240078 1.7404537-.4135551.3565693.2485886.7317924.5549812 1.1649151.5183105.562027-.0475845.9043751-.6471138 1.0296803-1.1970596.1253071-.549942.1478138-1.1543808.490242-1.602581.6374416-.834343 1.9221668-.6425285 2.9180241-.9752884 1.008337-.3369293 1.6041927-1.9152527 2.6262074-2.2080879.6763-.1937752 1.4899139-.1312714 1.971796-.643837.4379978-.4658852.453434-1.2843666 1.0133114-1.5932808.3029938-.1671791.6768341-.1252213 1.0080185-.2255669.7531738-.2282009 1.0803337-1.3045502.5815544-1.9132919-.2287064-.2791252-.5676498-.4397507-.8950043-.5915928-5.7382926-2.6616574-5.6932601-2.8088933-8.1297396-2.9219133z" fill="#aa6256" fill-opacity="1" data-original-color="#aa6256ff" stroke="none" stroke-opacity="1"/></g><g><g enable-background="new"><g><g><path d="m33.099987 30.8984547-13.5026493 7.8468838c-.4582615.2663116-1.0239792.2671127-1.4829941.0021019l-13.5998058-7.8518525c-.4759197-.2747726-.4768929-.9613667-.0017543-1.2374878l13.7136574-7.9695053c.3277473-.1904659.7323475-.19104 1.0606346-.001503l13.8111572 7.973877c.4759212.2747707.4768939.9613647.0017543 1.2374859z" fill="#bf7d5a" fill-opacity="1" data-original-color="#bf7d5aff" stroke="none" stroke-opacity="1"/></g></g></g></g></g></g><g><g><g><g><path d="m23.2989655 42.0277252c.000494.1739197-.1212788.3852921-.2726326.4726791-.1513557.0873833-.2743149.0173073-.2748089-.1566124-.0011883-.4194564.5462684-.7303008.5474415-.3160667z" fill="#aa6256" fill-opacity="1" data-original-color="#aa6256ff" stroke="none" stroke-opacity="1"/></g></g><g><g><path d="m23.5794353 42.988327c.0988541-.0570717.1789074-.0108643.1792297.1024323.0003223.1135902-.0792103.2516441-.1780643.3087196-.0988541.0570717-.179163.0113029-.1794853-.1022873-.0003204-.1133003.0794659-.2517891.1783199-.3088646z" fill="#aa6256" fill-opacity="1" data-original-color="#aa6256ff" stroke="none" stroke-opacity="1"/></g></g><g><g><path d="m21.7905502 44.4218903c.0007763.2738152-.3567829.4769478-.3575497.2064323-.0003204-.1133003.356783-.4769783.3575497-.2064323z" fill="#aa6256" fill-opacity="1" data-original-color="#aa6256ff" stroke="none" stroke-opacity="1"/></g></g><g><g><path d="m19.7162724 43.6325111c.0007763.2738152-.3567829.4769478-.3575497.2064323-.0003224-.1133002.3567829-.4769782.3575497-.2064323z" fill="#aa6256" fill-opacity="1" data-original-color="#aa6256ff" stroke="none" stroke-opacity="1"/></g></g><g><g><path d="m22.7954559 44.5154533c.0988541-.0570717.1789074-.0108643.1792297.1024323.0003223.1135902-.0792103.2516441-.1780643.3087196-.0988541.0570717-.179163.0113029-.1794853-.1022873-.0003204-.1133003.0794659-.2517891.1783199-.3088646z" fill="#aa6256" fill-opacity="1" data-original-color="#aa6256ff" stroke="none" stroke-opacity="1"/></g></g><g><g><path d="m24.1543217 43.6522827c.0988541-.0570717.1789093-.0108681.1792297.1024323.0003223.1135902-.0792103.2516441-.1780643.3087158-.0988541.0570755-.179163.0113029-.1794853-.1022873-.0003205-.1132965.0794658-.2517853.1783199-.3088608z" fill="#aa6256" fill-opacity="1" data-original-color="#aa6256ff" stroke="none" stroke-opacity="1"/></g></g><g><g><path d="m21.7905502 45.5105019c.0007763.2738152-.3567829.4769478-.3575497.2064285-.0003204-.1132965.356783-.4769783.3575497-.2064285z" fill="#aa6256" fill-opacity="1" data-original-color="#aa6256ff" stroke="none" stroke-opacity="1"/></g></g><g><g><path d="m20.320282 46.0249863c.0007763.2738152-.3567829.4769478-.3575497.2064323-.0003204-.1133003.3567829-.4769783.3575497-.2064323z" fill="#aa6256" fill-opacity="1" data-original-color="#aa6256ff" stroke="none" stroke-opacity="1"/></g></g></g><g><g><g><path d="m25.5153236 40.7612915c.0011883.419239-.5462685.7302551-.5474434.3160667-.0004901-.1734695.5462685-.7303009.5474434-.3160667z" fill="#aa6256" fill-opacity="1" data-original-color="#aa6256ff" stroke="none" stroke-opacity="1"/></g><g><path d="m25.2409058 42.9606895c.1513538-.0873833.2739258-.0166397.2744179.1568298.0004921.1739197-.1212788.3852921-.2726345.4726791-.1513538.0873833-.2743149.0173073-.2748089-.1566124-.0004902-.1734694.1216697-.3855094.2730255-.4728965z" fill="#aa6256" fill-opacity="1" data-original-color="#aa6256ff" stroke="none" stroke-opacity="1"/></g><g><path d="m20.6889515 44.5289841c.0011883.419239-.5462685.7302551-.5474415.3160667-.0004921-.1734695.5462666-.7303009.5474415-.3160667z" fill="#aa6256" fill-opacity="1" data-original-color="#aa6256ff" stroke="none" stroke-opacity="1"/></g><g><path d="m21.1250134 42.8791275c.1513557-.0873833.2739277-.0166397.2744179.1568298.000494.1739197-.1212769.3852921-.2726326.4726791-.1513538.0873833-.2743149.0173035-.2748089-.1566124-.0004921-.1734695.1216697-.3855132.2730236-.4728965z" fill="#aa6256" fill-opacity="1" data-original-color="#aa6256ff" stroke="none" stroke-opacity="1"/></g></g><g><g><path d="m25.9750214 41.8243256c.0003223.1135902-.0792103.2516441-.1780643.3087158-.0988541.0570755-.179163.0113068-.1794853-.1022873-.0007764-.2739563.3567828-.4769783.3575496-.2064285z" fill="#aa6256" fill-opacity="1" data-original-color="#aa6256ff" stroke="none" stroke-opacity="1"/></g></g><g><g><path d="m22.295517 43.2999878c.0988541-.0570755.1789074-.0108681.1792297.1024284.0003223.1135902-.0792103.2516441-.1780643.3087196-.0988541.0570717-.179163.0113029-.1794853-.1022873-.0003205-.1133003.0794658-.251789.1783199-.3088607z" fill="#aa6256" fill-opacity="1" data-original-color="#aa6256ff" stroke="none" stroke-opacity="1"/></g></g><g><g><path d="m26.3706799 42.385849c.0988522-.0570717.1789074-.0108681.1792297.1024284.0003204.1135941-.0792103.2516479-.1780643.3087196-.0988541.0570755-.179163.0113029-.1794853-.1022873-.0003224-.1132964.0794658-.251789.1783199-.3088607z" fill="#aa6256" fill-opacity="1" data-original-color="#aa6256ff" stroke="none" stroke-opacity="1"/></g></g></g><g><g><g><path d="m27.7316799 39.4948578c.0011883.419239-.5462685.7302551-.5474415.3160667-.0004921-.1734695.5462666-.7303009.5474415-.3160667z" fill="#aa6256" fill-opacity="1" data-original-color="#aa6256ff" stroke="none" stroke-opacity="1"/></g><g><path d="m27.457262 41.6942558c.1513538-.0873833.2739258-.0166397.2744179.1568298.0004921.1739197-.1212788.3852921-.2726326.4726791-.1513557.0873833-.2743168.0173035-.2748089-.1566124-.0004921-.1734694.1216679-.3855132.2730236-.4728965z" fill="#aa6256" fill-opacity="1" data-original-color="#aa6256ff" stroke="none" stroke-opacity="1"/></g></g><g><g><path d="m28.0121479 40.4554596c.0988541-.0570717.1789093-.0108681.1792297.1024323.0003223.1135902-.0792103.2516441-.1780643.3087158-.0988522.0570755-.179163.0113029-.1794834-.1022873-.0003224-.1132965.0794639-.2517853.178318-.3088608z" fill="#aa6256" fill-opacity="1" data-original-color="#aa6256ff" stroke="none" stroke-opacity="1"/></g></g><g><g><path d="m28.5870361 41.1194153c.0988541-.0570755.1789093-.0108681.1792297.1024284.0003223.1135902-.0792103.2516441-.1780643.3087196-.0988541.0570717-.179163.0113029-.1794853-.1022873-.0003204-.1132964.0794659-.251789.1783199-.3088607z" fill="#aa6256" fill-opacity="1" data-original-color="#aa6256ff" stroke="none" stroke-opacity="1"/></g></g></g><g><g><g><path d="m29.9480362 38.2284241c.0011883.419239-.5462666.7302551-.5474415.3160667-.0004921-.1734695.5462685-.7303009.5474415-.3160667z" fill="#aa6256" fill-opacity="1" data-original-color="#aa6256ff" stroke="none" stroke-opacity="1"/></g><g><path d="m29.9480362 40.5846519c.000494.1739197-.1212788.3852921-.2726326.4726753-.1513538.0873871-.2743149.0173073-.2748089-.1566086-.0011883-.4194602.5462685-.7303008.5474415-.3160667z" fill="#aa6256" fill-opacity="1" data-original-color="#aa6256ff" stroke="none" stroke-opacity="1"/></g></g><g><g><path d="m30.4077358 39.2914543c.0007763.273819-.3567829.4769516-.3575497.2064323-.0003204-.1132965.356783-.4769782.3575497-.2064323z" fill="#aa6256" fill-opacity="1" data-original-color="#aa6256ff" stroke="none" stroke-opacity="1"/></g></g><g><g><path d="m30.9826221 39.95541c.0007763.2738152-.356781.4769478-.3575478.2064323-.0003223-.1132965.3567811-.4769783.3575478-.2064323z" fill="#aa6256" fill-opacity="1" data-original-color="#aa6256ff" stroke="none" stroke-opacity="1"/></g></g></g><g><g><g><path d="m32.1643944 36.9619904c.0011864.4192352-.5462685.7302513-.5474415.3160629-.0004921-.1734696.5462666-.7302971.5474415-.3160629z" fill="#aa6256" fill-opacity="1" data-original-color="#aa6256ff" stroke="none" stroke-opacity="1"/></g><g><path d="m32.1643944 39.3182182c.0011864.419239-.5462685.7302551-.5474415.3160667-.0004921-.1734695.5462666-.7303008.5474415-.3160667z" fill="#aa6256" fill-opacity="1" data-original-color="#aa6256ff" stroke="none" stroke-opacity="1"/></g></g><g><g><path d="m32.6240921 38.0250206c.0007782.2738152-.356781.4769516-.3575478.2064323-.0003242-.1132965.356781-.4769783.3575478-.2064323z" fill="#aa6256" fill-opacity="1" data-original-color="#aa6256ff" stroke="none" stroke-opacity="1"/></g></g><g><g><path d="m31.2476006 38.405426c.0007763.2738152-.356781.4769478-.3575478.2064323-.0003223-.1132964.356781-.4769782.3575478-.2064323z" fill="#aa6256" fill-opacity="1" data-original-color="#aa6256ff" stroke="none" stroke-opacity="1"/></g></g><g><g><path d="m29.1238174 39.6718597c.0007763.2738152-.3567829.4769516-.3575497.2064323-.0003204-.1132964.356783-.4769782.3575497-.2064323z" fill="#aa6256" fill-opacity="1" data-original-color="#aa6256ff" stroke="none" stroke-opacity="1"/></g></g><g><g><path d="m26.8566551 40.7879868c.0007763.2738152-.356781.4769478-.3575497.2064285-.0003204-.1132965.356783-.4769783.3575497-.2064285z" fill="#aa6256" fill-opacity="1" data-original-color="#aa6256ff" stroke="none" stroke-opacity="1"/></g></g><g><g><path d="m24.691103 42.1305199c.0003223.1135902-.0792103.2516441-.1780643.3087196-.0988541.0570717-.179163.0113029-.1794853-.1022873-.0007764-.2739601.3567828-.4769821.3575496-.2064323z" fill="#aa6256" fill-opacity="1" data-original-color="#aa6256ff" stroke="none" stroke-opacity="1"/></g></g></g></g><g><g><g><g><path d="m14.2117195 42.0277252c-.0011883.419239.5462675.7302551.5474424.3160667.0004912-.1734695-.5462675-.7303008-.5474424-.3160667z" fill="#aa6256" fill-opacity="1" data-original-color="#aa6256ff" stroke="none" stroke-opacity="1"/></g></g><g><g><path d="m15.8940086 43.0359573c-.0011883.419239.5462666.7302551.5474415.3160667.0004921-.1734695-.5462675-.7303008-.5474415-.3160667z" fill="#aa6256" fill-opacity="1" data-original-color="#aa6256ff" stroke="none" stroke-opacity="1"/></g></g><g><g><path d="m13.7520208 43.0907593c-.0007763.2738152.3567829.4769478.3575497.2064323.0003214-.1133003-.356782-.4769821-.3575497-.2064323z" fill="#aa6256" fill-opacity="1" data-original-color="#aa6256ff" stroke="none" stroke-opacity="1"/></g></g><g><g><path d="m15.5976391 44.8138809c-.0007763.2738152.356782.4769478.3575497.2064285.0003204-.1132965-.356783-.4769783-.3575497-.2064285z" fill="#aa6256" fill-opacity="1" data-original-color="#aa6256ff" stroke="none" stroke-opacity="1"/></g></g><g><g><path d="m13.1771336 43.754715c-.0007763.2738152.3567829.4769478.3575497.2064285.0003213-.1132965-.356782-.4769783-.3575497-.2064285z" fill="#aa6256" fill-opacity="1" data-original-color="#aa6256ff" stroke="none" stroke-opacity="1"/></g></g></g><g><g><g><path d="m11.9953632 40.7612915c-.0011892.419239.5462675.7302551.5474415.3160667.0004921-.1734695-.5462675-.7303009-.5474415-.3160667z" fill="#aa6256" fill-opacity="1" data-original-color="#aa6256ff" stroke="none" stroke-opacity="1"/></g><g><path d="m11.9953632 43.1175194c-.0011892.419239.5462675.7302551.5474415.3160667.0004921-.1734695-.5462675-.7303009-.5474415-.3160667z" fill="#aa6256" fill-opacity="1" data-original-color="#aa6256ff" stroke="none" stroke-opacity="1"/></g><g><path d="m14.3055754 44.4408836c-.0011883.4192352.5462675.7302513.5474415.3160629.000492-.1734695-.5462676-.730297-.5474415-.3160629z" fill="#aa6256" fill-opacity="1" data-original-color="#aa6256ff" stroke="none" stroke-opacity="1"/></g><g><path d="m16.2818565 45.7400894c-.0011883.419239.5462666.7302551.5474415.3160667.0004921-.1734695-.5462684-.7303008-.5474415-.3160667z" fill="#aa6256" fill-opacity="1" data-original-color="#aa6256ff" stroke="none" stroke-opacity="1"/></g></g><g><g><path d="m11.5356646 41.8243256c-.0007763.2738152.356782.4769478.3575487.2064285.0003214-.1132965-.356782-.4769783-.3575487-.2064285z" fill="#aa6256" fill-opacity="1" data-original-color="#aa6256ff" stroke="none" stroke-opacity="1"/></g></g><g><g><path d="m15.0359392 43.4024162c-.0007763.2738152.3567829.4769478.3575497.2064323.0003214-.1133003-.356782-.4769782-.3575497-.2064323z" fill="#aa6256" fill-opacity="1" data-original-color="#aa6256ff" stroke="none" stroke-opacity="1"/></g></g><g><g><path d="m16.2626781 44.4956818c-.0007763.273819.356781.4769516.3575478.2064323.0003223-.1132965-.356781-.4769783-.3575478-.2064323z" fill="#aa6256" fill-opacity="1" data-original-color="#aa6256ff" stroke="none" stroke-opacity="1"/></g></g><g><g><path d="m10.9607773 42.4882774c-.0007763.273819.356782.4769516.3575487.2064323.0003214-.1132964-.356782-.4769782-.3575487-.2064323z" fill="#aa6256" fill-opacity="1" data-original-color="#aa6256ff" stroke="none" stroke-opacity="1"/></g></g></g><g><g><g><path d="m9.779006 39.4948578c-.0011883.419239.5462675.7302551.5474415.3160667.0004921-.1734695-.5462675-.7303009-.5474415-.3160667z" fill="#aa6256" fill-opacity="1" data-original-color="#aa6256ff" stroke="none" stroke-opacity="1"/></g><g><path d="m9.779006 41.8510857c-.0011883.419239.5462675.7302551.5474415.3160667.0004921-.1734695-.5462675-.7303009-.5474415-.3160667z" fill="#aa6256" fill-opacity="1" data-original-color="#aa6256ff" stroke="none" stroke-opacity="1"/></g></g><g><g><path d="m9.4985371 40.4554596c-.2354431-.1359329-.2385273.2741089-.0011654.4111481.0988541.0570755.179163.0113029.1794853-.1022873.0003204-.1132965-.0794659-.2517853-.1783199-.3088608z" fill="#aa6256" fill-opacity="1" data-original-color="#aa6256ff" stroke="none" stroke-opacity="1"/></g></g><g><g><path d="m8.7444201 41.2218437c-.0007763.2738152.356782.4769516.3575497.2064323.0003204-.1132964-.356783-.4769782-.3575497-.2064323z" fill="#aa6256" fill-opacity="1" data-original-color="#aa6256ff" stroke="none" stroke-opacity="1"/></g></g></g><g><g><g><path d="m7.5626493 38.2284241c-.0011888.419239.546267.7302551.547442.3160667.0004911-.1734695-.5462681-.7303009-.547442-.3160667z" fill="#aa6256" fill-opacity="1" data-original-color="#aa6256ff" stroke="none" stroke-opacity="1"/></g><g><path d="m7.5626493 40.5846519c-.0011888.419239.546267.7302551.547442.3160667.0004911-.1734695-.5462681-.7303008-.547442-.3160667z" fill="#aa6256" fill-opacity="1" data-original-color="#aa6256ff" stroke="none" stroke-opacity="1"/></g></g><g><g><path d="m7.1029506 39.2914543c-.0007763.273819.3567824.4769516.3575492.2064323.0007767-.2739601-.3567825-.4769782-.3575492-.2064323z" fill="#aa6256" fill-opacity="1" data-original-color="#aa6256ff" stroke="none" stroke-opacity="1"/></g></g><g><g><path d="m6.5280628 39.95541c-.0007763.2738152.3567824.4769478.3575497.2064323.0003209-.1132965-.3567824-.4769783-.3575497-.2064323z" fill="#aa6256" fill-opacity="1" data-original-color="#aa6256ff" stroke="none" stroke-opacity="1"/></g></g></g><g><g><g><path d="m5.346292 36.9619904c-.0011883.4192352.5462675.7302513.547442.3160629.0004916-.1734696-.5462675-.7302971-.547442-.3160629z" fill="#aa6256" fill-opacity="1" data-original-color="#aa6256ff" stroke="none" stroke-opacity="1"/></g><g><path d="m5.6207099 39.1613884c-.3604856-.2081261-.3652086.4196815-.0017843.6295052.1513543.0873871.2743154.0173073.2748084-.1566086.0004916-.1734696-.1216693-.3855133-.2730241-.4728966z" fill="#aa6256" fill-opacity="1" data-original-color="#aa6256ff" stroke="none" stroke-opacity="1"/></g></g><g><g><path d="m4.8865933 38.0250206c-.0007763.2738152.3567824.4769516.3575492.2064323.0003214-.1132965-.3567819-.4769783-.3575492-.2064323z" fill="#aa6256" fill-opacity="1" data-original-color="#aa6256ff" stroke="none" stroke-opacity="1"/></g></g><g><g><path d="m6.2630844 38.405426c-.0007763.2738152.3567824.4769478.3575492.2064323.0003214-.1132964-.3567824-.4769782-.3575492-.2064323z" fill="#aa6256" fill-opacity="1" data-original-color="#aa6256ff" stroke="none" stroke-opacity="1"/></g></g><g><g><path d="m8.3868685 39.6718597c-.0007763.2738152.3567829.4769516.3575497.2064323.0007762-.27396-.356782-.4769782-.3575497-.2064323z" fill="#aa6256" fill-opacity="1" data-original-color="#aa6256ff" stroke="none" stroke-opacity="1"/></g></g><g><g><path d="m10.6540298 40.7879868c-.0007763.2738152.3567829.4769478.3575497.2064285.0003214-.1132965-.3567819-.4769783-.3575497-.2064285z" fill="#aa6256" fill-opacity="1" data-original-color="#aa6256ff" stroke="none" stroke-opacity="1"/></g></g><g><g><path d="m12.8195829 42.1305199c-.0007763.2738152.356782.4769478.3575487.2064323.0003214-.1133003-.3567819-.4769821-.3575487-.2064323z" fill="#aa6256" fill-opacity="1" data-original-color="#aa6256ff" stroke="none" stroke-opacity="1"/></g></g></g></g><g><g><path d="m21.7731361 26.1080303c-.0733051.4272766-.8494873.649044-1.731945.4976425-.8824596-.1513996-1.5402851-.619194-1.46698-1.0464687.073307-.4272766.8494473-.6490974 1.7319069-.4976978.8824577.1514015 1.5403252.6192493 1.4670181 1.046524z" fill="#8a4852" fill-opacity="1" data-original-color="#8a4852ff" stroke="none" stroke-opacity="1"/></g><g><path d="m21.764698 25.9478092c-1.1193085-.8579254-3.0714321-.4875069-2.837534.2134724-.2490902-.1779118-.391386-.4002895-.3558254-.6048584.1741963-.9287396 2.9673787-.5799637 3.1933594.391386z" fill="#aa6256" fill-opacity="1" data-original-color="#aa6256ff" stroke="none" stroke-opacity="1"/></g><g><path d="m23.7853012 28.5539589c.3376503-.277914.8053303-.3323784 1.2425308-.3223228.1544914.0035515.3282394.0232658.42416.1444244.0381451.0481834.0591602.1074333.0776882.166029.0371532.1174946.0669575.2373123.0891857.3585205.0146503.0798969.0256996.1641769-.0011387.2408447-.018549.05299-.0540028.0983906-.0925541.1392059-.0939102.0994225-.2100372.1777401-.3374062.2275486-.2060318.0805702-.4329529.0851574-.6541729.083559-.1063786-.0007687-.21385-.0028629-.31707-.0286045-.2128239-.0530777-.3967056-.2112694-.480978-.4137802-.0675564-.162344-.0794792-.3011017-.0301437-.4698792.0104371-.0357093.0798989-.1255454.0798989-.1255454z" fill="#8a4852" fill-opacity="1" data-original-color="#8a4852ff" stroke="none" stroke-opacity="1"/></g><g><path d="m25.5362072 28.5807743c-.0444641-.0089035-.0889835-.0089035-.1334476-.0089035-.4358501-.0089035-.9072628.0444641-1.2452793.3202095 0 0-.062273.0889301-.08008.1245441-.0444641.1690083-.0355606.311306.0355606.4714127.0089035.017807.0089035.035614.0267105.0445175-.1779118-.0711746-.329113-.2046242-.4002895-.3825359-.0711746-.1601048-.0800247-.3024025-.0355606-.4714108.0089035-.0355625.0800266-.1245461.0800266-.1245461.3380165-.2757454.8094826-.329113 1.2453327-.3202095.1512012 0 .3291149.017807.4269466.1422977.0356159.0445194.0533695.1067371.0711765.1690083 0 .0089036.0089035.0267125.0089035.035616z" fill="#aa6256" fill-opacity="1" data-original-color="#aa6256ff" stroke="none" stroke-opacity="1"/></g><g><path d="m13.1710033 28.4057083c.3376513-.277914.8053322-.3323784 1.2425318-.3223248.3583393.0082417.4406424.11689.5018492.3104553.0445805.1409874.1365004.4609451.088047.5993652-.0513363.1466522-.2656031.3024788-.4299622.3667545-.2060308.0805702-.4329519.0851555-.6541719.083559-.1063786-.0007687-.2138491-.0028629-.3170691-.0286064-.2128248-.0530777-.3967075-.2112694-.480978-.4137783-.0675564-.162344-.0794792-.3011036-.0301447-.4698792.010438-.0357092.0798979-.1255453.0798979-.1255453z" fill="#8a4852" fill-opacity="1" data-original-color="#8a4852ff" stroke="none" stroke-opacity="1"/></g><g><path d="m14.9219112 28.4325218c-.0444651-.0089035-.0889835-.0089035-.1334486-.0089035-.4358501-.0089035-.9072618.044466-1.2452793.3202114 0 0-.0622721.0889282-.08008.1245441-.0444641.1690083-.0355606.311306.0355606.4714108.0089045.017807.0089045.0356159.0267115.0445194-.1779127-.0711765-.329114-.2046242-.4002895-.3825378-.0711765-.1601048-.0800257-.3024025-.0355606-.4714108.0089035-.0355606.0800247-.1245441.0800247-.1245441.3380184-.2757454.8094835-.329113 1.2453346-.3202095.3680868 0 .4432974.119585.4981222.311306 0 .0089035.0089044.0267105.0089044.035614z" fill="#aa6256" fill-opacity="1" data-original-color="#aa6256ff" stroke="none" stroke-opacity="1"/></g><g><path d="m20.4525852 29.5378361c.259922.0004616.4707298.04245.5821285.3398342.0733013.1956787.0465775.4574127.0084381.5209999-.1153984.1924038-1.1824036.1685905-1.4070587.1524639-.2376442-.0170593-.5264606-.0620232-.6773815-.2693367-.1215992-.1670341-.1270561-.4653587.0277691-.6180305.1272564-.1254864.337328-.1235008.5030613-.1271648.3206692-.0070897.6422958.0006656.9630432.001234z" fill="#8a4852" fill-opacity="1" data-original-color="#8a4852ff" stroke="none" stroke-opacity="1"/></g><g><path d="m21.0479336 29.9214649c-.1469326-.0652485-.2789268-.0448875-1.2575874-.0448875-.1571388.0111694-.370472 0-.5052013.1347294-.1010818.1010132-.1347294.2919369-.0898418.4490757-.3465443-.1153584-.4163208-.5786171-.2133331-.7971382.1814709-.1664276.4676247-.12356 1.4708519-.12356.2422886 0 .4478664.0104084.5838737.3368931-.0000001.0111694.011238.0336475.011238.0448875z" fill="#aa6256" fill-opacity="1" data-original-color="#aa6256ff" stroke="none" stroke-opacity="1"/></g><g><path d="m25.2604465 31.8588943c.1015778.0001812.2058372.0008392.3005905.0374432.1323719.051136.23176.1695042.281538.302393.0733013.1956749.0465775.4574127.00844.5209999-.1154003.1924019-1.1824036.1685905-1.4070606.152462-.2376442-.0170593-.5264606-.0620232-.6773815-.2693367-.1215992-.1670341-.1270561-.4653587.0277691-.6180305.1272564-.1254864.337328-.1235008.5030613-.1271648.3206711-.0070897.6422959.0006656.9630432.0012339z" fill="#8a4852" fill-opacity="1" data-original-color="#8a4852ff" stroke="none" stroke-opacity="1"/></g><g><path d="m25.8557949 32.2425232c-.1010799-.0448875-.1909237-.0448875-.291935-.0448875h-.9656525c-.1571388.0111694-.370472 0-.5052013.1347275-.1010818.1010132-.1347294.2919388-.0898418.4490776-.3465443-.1153603-.4163208-.5786171-.2133331-.7971382.1347294-.12356.3368225-.12356.50527-.12356.3255844-.0111694.6399975 0 .9655819 0 .1010818 0 .202095 0 .3031769.0337181.1347294.0561256.2245712.1684437.2806969.303175-.0000001.0111694.011238.0336494.011238.0448875z" fill="#aa6256" fill-opacity="1" data-original-color="#aa6256ff" stroke="none" stroke-opacity="1"/></g><g><path d="m14.9957533 25.0151005c-.1015768.0001793-.2058372.0008392-.3005905.0374413-.1323719.051136-.2317591.1695042-.281538.302393-.0733004.1956768-.0465775.4574108-.0084391.5209999.0405064.0675335.1274252.0879135.2051897.1003323.474123.0757141 1.5964918.1712074 1.8792524-.217205.1215973-.1670341.1270561-.4653587-.027771-.6180325-.1272564-.1254864-.337326-.1235008-.5030603-.1271648-.3206692-.0070879-.6422949.0006655-.9630432.0012358z" fill="#8a4852" fill-opacity="1" data-original-color="#8a4852ff" stroke="none" stroke-opacity="1"/></g><g><path d="m14.4004049 25.3987274c.1010809-.0448875.1909237-.0448875.2919359-.0448875 1.1438971 0 1.3132-.0229244 1.4708538.1347294.1010818.1010132.1347294.2919369.0898418.4490757.3465443-.1153584.4163208-.5786171.2133331-.7971382-.1347294-.123558-.3368225-.123558-.5052691-.123558-.3255854-.0111713-.6399994 0-.9655838 0-.1010818 0-.2020941 0-.3031759.0337162-.1347294.0561256-.2245712.1684456-.2806969.303175.0000002.0111712-.0112389.0336474-.0112389.0448874z" fill="#aa6256" fill-opacity="1" data-original-color="#aa6256ff" stroke="none" stroke-opacity="1"/></g><g><path d="m16.0456581 32.5274429c.4631195.0996895.7217674.5717163.602972.8315163-.0626259.1369591-.2126713.208744-.3541889.2602425-.5483246.1995392-1.1470852.2587128-1.7238598.1703606-.6671705-.1021996-.8635359-.6787682-.6386375-1.1122932.0843239-.1625443.1708241-.1708412.3463783-.1716881 1.4085455-.0068093 1.6294031-.0078279 1.7673359.0218619z" fill="#8a4852" fill-opacity="1" data-original-color="#8a4852ff" stroke="none" stroke-opacity="1"/></g><g><path d="m16.5795708 32.9185791c-.1324043-.07938-.3447952-.0800285-.4981232-.0800285-1.6977568.0089912-1.6490736-.0589104-1.7612095.1779137-.1287575.2318115-.1131296.4766846.0089035.7205009-.4006443-.1603165-.6124363-.6107826-.4002895-1.0585175.0889292-.1601601.1779127-.1690102.346921-.1690102.100318-.0018959 1.5595903-.030777 1.7701139.0177536.2223778.0533677.4269466.1957207.5336838.391388z" fill="#aa6256" fill-opacity="1" data-original-color="#aa6256ff" stroke="none" stroke-opacity="1"/></g><g><path d="m29.3572369 29.9309921c.1134853-.0002213.2280025-.0003376.3389473.0235424.4431286.0953846.6906128.5470371.5769444.7956238-.0599232.1310463-.2034912.1997337-.3388996.2490101-.5246563.1909256-1.0975704.2475414-1.6494484.1630039-.0772038-.0118256-.1544132-.0264721-.2277603-.0533142-.2147064-.0785694-.3862267-.2661839-.4452763-.4870586-.0468483-.1752319-.0211277-.3637276.0619659-.5239048.0806828-.1555309.1634502-.1634674.3314266-.164278.4506893-.0021802.9014072-.001751 1.3521004-.0026246z" fill="#8a4852" fill-opacity="1" data-original-color="#8a4852ff" stroke="none" stroke-opacity="1"/></g><g><path d="m30.2070503 30.3287849c-.0425453-.0255051-.0936108-.0425434-.1361561-.0510635-.1191673-.025507-.2298164-.025507-.3404655-.025507h-1.3532391c-.1702328 0-.2553768.0085201-.3319473.1702328-.1231995.2218037-.1082458.4561062.0085201.6893997-.2127781-.0851421-.3830109-.2723618-.4425945-.49366-.0425453-.1702328-.0170403-.3574524.0595837-.5191669.0850906-.1532459.1702328-.1617126.3319454-.1617126.4510632-.0085201.9021778-.0085201 1.353241-.0085201.1106491 0 .2298164 0 .3404655.025507.2127781.0510653.4085178.187271.5106468.3744906z" fill="#aa6256" fill-opacity="1" data-original-color="#aa6256ff" stroke="none" stroke-opacity="1"/></g><g><path d="m21.2355766 33.2038689c.3872452.0833588.6035194.4780502.5041866.6952896-.0523663.114521-.1778297.1745453-.2961617.2176056-.4584923.166851-.9591579.2163277-1.4414387.1424484-.5578671-.085453-.7220631-.5675621-.5340099-.9300613.070509-.1359177.1428394-.1428528.2896309-.1435623 1.1777841-.0056954 1.3624574-.0065461 1.4777928.01828z" fill="#8a4852" fill-opacity="1" data-original-color="#8a4852ff" stroke="none" stroke-opacity="1"/></g><g><path d="m21.6820183 33.5309258c-.2025967-.12146-.6280766-.0391731-1.5991001-.0669174-.1487656 0-.2231693.0074463-.2900848.1487656-.1076622.1938324-.094595.3985863.0074444.602459-.3350067-.1340485-.5121002-.5107155-.3347092-.8850975.1018085-.1833534.0947933-.1487656 1.4726696-.1487656.0966949 0 .2008343 0 .2975292.0222893.1859455.0446242.3570003.1636542.4462509.3272666z" fill="#aa6256" fill-opacity="1" data-original-color="#aa6256ff" stroke="none" stroke-opacity="1"/></g><g><path d="m9.3174152 29.4608822c-.3859863-.0890102-.7494211.1764584-.7517595.4153175-.0012321.1259193.0868587.2335491.1756983.3227921.3442183.3457851.7764673.6032238 1.2444649.7411785.3406858.1004276.5805063.0034237.7330418-.1777096.1021042-.1212482.1517181-.2799225.1454306-.4374886-.0061064-.1529961-.0686417-.1899948-.2012348-.2529831-1.0638543-.5053901-1.2306825-.5845966-1.3456413-.6111068z" fill="#8a4852" fill-opacity="1" data-original-color="#8a4852ff" stroke="none" stroke-opacity="1"/></g><g><path d="m8.774332 29.5673561c.1284218-.0130672.2894316.0618725.4055014.1163254 1.1835108.5629044 1.2692404.5315361 1.2700548.7601624.0151443.2212067-.0836515.4010258-.26262.5422573.1999416.0116158.4041109-.0733204.5333891-.226284.0968447-.1188889.1461544-.2764759.1455564-.4328556-.0104408-.1528244-.0746584-.1911259-.2025986-.2511482-.1018-.0501251-1.171978-.5776672-1.3462849-.6152039-.1872938-.0385762-.3927086-.0034657-.5429982.1067466z" fill="#aa6256" fill-opacity="1" data-original-color="#aa6256ff" stroke="none" stroke-opacity="1"/></g></g><g><path d="m17.7435055 43.8521042c-.401907 0-.4050751-.610569 0-.610569.1720619 0 .4026108.610569 0 .610569z" fill="#aa6256" fill-opacity="1" data-original-color="#aa6256ff" stroke="none" stroke-opacity="1"/></g><g><path d="m18.7503796 45.9941597c-.401907 0-.405077-.610569 0-.610569.1720619 0 .4026088.610569 0 .610569z" fill="#aa6256" fill-opacity="1" data-original-color="#aa6256ff" stroke="none" stroke-opacity="1"/></g><g><path d="m18.5916367 44.7579575c-.2713337 0-.2734718-.4122047 0-.4122047.1161632-.0000001.2718086.4122047 0 .4122047z" fill="#aa6256" fill-opacity="1" data-original-color="#aa6256ff" stroke="none" stroke-opacity="1"/></g><g><path d="m17.8426819 46.4564743c-.2713337 0-.2734737-.4122009 0-.4122009.1161613 0 .2718086.4122009 0 .4122009z" fill="#aa6256" fill-opacity="1" data-original-color="#aa6256ff" stroke="none" stroke-opacity="1"/></g><g><path d="m18.9805412 47.0319977c-.2713337 0-.2734737-.4122047 0-.4122047.1161614-.0000001.2718087.4122047 0 .4122047z" fill="#aa6256" fill-opacity="1" data-original-color="#aa6256ff" stroke="none" stroke-opacity="1"/></g><g><path d="m17.5374146 45.1989441c-.2713337 0-.2734737-.4122009 0-.4122009.1161613 0 .2718086.4122009 0 .4122009z" fill="#aa6256" fill-opacity="1" data-original-color="#aa6256ff" stroke="none" stroke-opacity="1"/></g></g><g><g><g><path d="m40.34161 13.453968-.0278778 11.4996319c-.0069809.3835449-.2580261.7740707-.7670937 1.0669537l-12.0296383 6.9876671c-1.018177.5997276-2.6779213.5997276-3.7100163 0l-12.1063404-6.9876671c-.5160904-.2998638-.7741137-.6903896-.7741137-1.0809155l.0279217-11.4996319c0 .3905258.2580242.7810516.7740717 1.0809164l12.1063404 6.9946451c1.0321369.5927486 2.6918392.5927486 3.7100163 0l12.0366211-6.9946451c.1882591-.1115608.3417053-.2301445.4602432-.3626471.0418434-.0418406.0767021-.0906181.1116066-.1394396.0627365-.090662.111557-.1813231.1394386-.278965.0349007-.0906619.0488206-.1883038.0488206-.2859029z" fill="#8a4852" fill-opacity="1" data-original-color="#8a4852ff" stroke="none" stroke-opacity="1"/></g></g><g><g><path d="m40.3298302 17.7917252v4.5264168c-.0069809.3835449-.2580223.7740707-.7670898 1.0669556l-12.0296402 6.9876652c-1.0181751.5997276-2.6779213.5997276-3.7100143 0l-12.1063414-6.9876652c-.5160904-.2998657-.7741137-.6903915-.7741137-1.0809174l.0000429-4.5264168c0 .3905258.2580233.7810516.7740707 1.0809174l12.1063414 6.9946461c1.0321369.5927467 2.6918392.5927467 3.7100143 0 12.5138054-7.3038654 12.1754723-6.9980469 12.4968681-7.3572922.0418396-.0418415.0766983-.09062.1116028-.1394405.0627403-.090662.1115608-.181324.1394386-.278965.0349046-.0906621.0488206-.188305.0488206-.285904z" fill="#7f424e" fill-opacity="1" data-original-color="#7f424eff" stroke="none" stroke-opacity="1"/></g></g><g><g><g><path d="m34.2801361 10.5010042c-.875412-.3097124-1.7090378-.3905067-2.6613464-.4346809-5.8969078-.2735367-11.7332878 1.0891619-17.479229 2.4428654-.8367205.1971264-1.6734409.3942518-2.5101604.5913773-.3682108.0867472-.861455.2151213-1.042119.5895662-.2127676.4409838-.2872105 1.0071802-.0715733 1.4608574.2031679.4274416.7007217.7253685 1.1598949.6107216.2984848-.0745268.5544167-.3047037.8619576-.3128443.5162487-.0136633.9703922 1.2378225 1.0867043 1.740983.1163111.5031624.2295628 1.098259.6958828 1.3201714.5352507.254715 1.2463245-.1500397 1.7366133.1831093.5990963.4070835.2167358 1.3514709.4036369 2.0512562.0252266.0944538.0635719.1883221.1316814.2584572.2010632.2070446.5587273.1189365.7885265-.055666.2297993-.1746006.410141-.4209538.6743126-.5371704.4655228-.2047977 1.0013676.0666485 1.3921299.3921585.3907604.32551.7571201.7283344 1.2531242.8407249.74296.1683483 1.5743885-.3683262 2.2499905-.0163422.6330681.3298244.6930561 1.1984138 1.0634403 1.8086376.4260693.7019672 1.5317497 1.0050125 2.0857296.39888.1880131-.2057152.2966747-.4895153.5328255-.6375027.3683262-.2308178.8510571-.0246429 1.2076263.2239475.3565712.2485905.7317944.5549812 1.1649151.5183105.5620289-.0475845.9043751-.6471138 1.0296822-1.1970577s.1478138-1.1543827.4902401-1.6025829c.6374435-.834343 1.9221668-.6425285 2.9180241-.9752884 1.0083389-.3369293 1.6041946-1.9152527 2.6262093-2.208086.6763-.193779 1.4899139-.1312733 1.9717941-.643837.4379997-.4658871.453434-1.2843704 1.0133133-1.5932846.3029938-.1671762.6768303-.1252174 1.0080185-.225563.7531738-.2282028 1.0803337-1.3045521.5815544-1.9132929-.2287064-.2791262-.5676498-.4397516-.8950081-.5915928-1.387043-.6433687-2.774086-1.2867365-4.161129-1.9301052-.4297639-.1993408-.8611947-.399311-1.3072625-.557127z" fill="#aa6256" fill-opacity="1" data-original-color="#aa6256ff" stroke="none" stroke-opacity="1"/></g><g><g enable-background="new"><g><g><path d="m39.9858398 14.318821-13.5026512 7.8468819c-.4582615.2663136-1.0239773.2671146-1.4829922.0021019l-13.5998068-7.8518515c-.4759197-.2747726-.4768925-.9613657-.0017538-1.2374859l13.7136555-7.9695063c.3277493-.1904664.7323475-.1910396 1.0606346-.0015035l13.8111591 7.9738765c.4759217.2747727.4768945.9613657.0017548 1.2374869z" fill="#bf7d5a" fill-opacity="1" data-original-color="#bf7d5aff" stroke="none" stroke-opacity="1"/></g></g></g></g></g></g><g><g><g><g><path d="m30.1848183 25.4480934c.0011883.4192371-.5462685.7302532-.5474415.3160648-.0004921-.1734695.5462665-.7302989.5474415-.3160648z" fill="#aa6256" fill-opacity="1" data-original-color="#aa6256ff" stroke="none" stroke-opacity="1"/></g></g><g><g><path d="m30.644516 26.5111256c.0007763.2738152-.356781.4769497-.3575478.2064304-.0003223-.1132965.356781-.4769783.3575478-.2064304z" fill="#aa6256" fill-opacity="1" data-original-color="#aa6256ff" stroke="none" stroke-opacity="1"/></g></g><g><g><path d="m28.676403 27.8422565c.0003204.1135902-.0792103.251646-.1780643.3087177-.0988541.0570736-.179163.0113049-.1794853-.1022854-.0007763-.27396.356781-.4769801.3575496-.2064323z" fill="#aa6256" fill-opacity="1" data-original-color="#aa6256ff" stroke="none" stroke-opacity="1"/></g></g><g><g><path d="m26.6021233 27.0528774c.0003223.1135902-.0792103.251646-.1780643.3087177-.0988541.0570736-.179163.0113049-.1794834-.1022854-.0007783-.27396.3567809-.4769801.3575477-.2064323z" fill="#aa6256" fill-opacity="1" data-original-color="#aa6256ff" stroke="none" stroke-opacity="1"/></g></g><g><g><path d="m29.8605366 28.0382519c.0003223.1135902-.0792103.2516441-.1780624.3087177-.0988541.0570736-.179163.0113049-.1794853-.1022873-.0007783-.2739601.3567809-.4769783.3575477-.2064304z" fill="#aa6256" fill-opacity="1" data-original-color="#aa6256ff" stroke="none" stroke-opacity="1"/></g></g><g><g><path d="m31.2194042 27.1750793c.0007763.2738171-.3567829.4769497-.3575497.2064323-.0003204-.1132983.356783-.4769801.3575497-.2064323z" fill="#aa6256" fill-opacity="1" data-original-color="#aa6256ff" stroke="none" stroke-opacity="1"/></g></g><g><g><path d="m28.4971714 28.8284359c.0988541-.0570736.1789093-.0108662.1792316.1024303.0003204.1135902-.0792103.251646-.1780643.3087177-.0988541.0570736-.179163.0113049-.1794853-.1022854-.0003224-.1132983.0794658-.251789.178318-.3088626z" fill="#aa6256" fill-opacity="1" data-original-color="#aa6256ff" stroke="none" stroke-opacity="1"/></g></g><g><g><path d="m27.0269051 29.3429222c.0988541-.0570736.1789074-.0108662.1792297.1024303.0003223.1135902-.0792103.251646-.1780643.3087177-.0988541.0570736-.179163.0113049-.1794853-.1022854-.0003205-.1132983.0794658-.251789.1783199-.3088626z" fill="#aa6256" fill-opacity="1" data-original-color="#aa6256ff" stroke="none" stroke-opacity="1"/></g></g></g><g><g><g><path d="m32.4011765 24.1816578c.0011864.419239-.5462685.7302551-.5474434.3160667-.0004921-.1734695.5462684-.7303009.5474434-.3160667z" fill="#aa6256" fill-opacity="1" data-original-color="#aa6256ff" stroke="none" stroke-opacity="1"/></g><g><path d="m32.4011765 26.5378876c.0011864.4192371-.5462685.7302532-.5474434.3160648-.0004921-.1734695.5462684-.730299.5474434-.3160648z" fill="#aa6256" fill-opacity="1" data-original-color="#aa6256ff" stroke="none" stroke-opacity="1"/></g><g><path d="m27.3003845 27.7925205c.1513557-.0873852.2739258-.0166397.2744179.1568298.000494.1739178-.1212788.3852921-.2726326.4726772s-.2743149.0173073-.2748089-.1566124c-.0004921-.1734675.1216698-.3855113.2730236-.4728946z" fill="#aa6256" fill-opacity="1" data-original-color="#aa6256ff" stroke="none" stroke-opacity="1"/></g><g><path d="m28.285284 26.4563236c.0011883.419239-.5462666.7302551-.5474415.3160667-.000492-.1734695.5462666-.7303008.5474415-.3160667z" fill="#aa6256" fill-opacity="1" data-original-color="#aa6256ff" stroke="none" stroke-opacity="1"/></g></g><g><g><path d="m32.8608742 25.2446918c.0007744.2738152-.356781.4769478-.3575516.2064304-.0003204-.1132983.3567848-.4769782.3575516-.2064304z" fill="#aa6256" fill-opacity="1" data-original-color="#aa6256ff" stroke="none" stroke-opacity="1"/></g></g><g><g><path d="m29.3605976 26.8227825c.0007763.2738171-.356781.4769497-.3575478.2064323-.0003223-.1132984.3567811-.4769802.3575478-.2064323z" fill="#aa6256" fill-opacity="1" data-original-color="#aa6256ff" stroke="none" stroke-opacity="1"/></g></g><g><g><path d="m33.4357605 25.9086456c.0007782.2738152-.356781.4769497-.3575478.2064304-.0003204-.1132964.356781-.4769782.3575478-.2064304z" fill="#aa6256" fill-opacity="1" data-original-color="#aa6256ff" stroke="none" stroke-opacity="1"/></g></g></g><g><g><g><path d="m34.6175308 22.9152241c.0011902.4192371-.5462646.7302532-.5474396.3160648-.000492-.1734676.5462647-.730299.5474396-.3160648z" fill="#aa6256" fill-opacity="1" data-original-color="#aa6256ff" stroke="none" stroke-opacity="1"/></g><g><path d="m34.3431129 25.1146221c.3604851-.2081261.3652115.4196835.0017853.6295071-.1513557.0873852-.2743149.0173073-.274807-.1566105-.000492-.1734696.1216698-.3855114.2730217-.4728966z" fill="#aa6256" fill-opacity="1" data-original-color="#aa6256ff" stroke="none" stroke-opacity="1"/></g></g><g><g><path d="m35.0772324 23.9782562c.0007744.2738171-.3567848.4769497-.3575516.2064323-.0003204-.1132983.356781-.4769801.3575516-.2064323z" fill="#aa6256" fill-opacity="1" data-original-color="#aa6256ff" stroke="none" stroke-opacity="1"/></g></g><g><g><path d="m35.6521187 24.6422119c.0007744.2738152-.3567848.4769478-.3575516.2064304-.0003204-.1132984.3567848-.4769783.3575516-.2064304z" fill="#aa6256" fill-opacity="1" data-original-color="#aa6256ff" stroke="none" stroke-opacity="1"/></g></g></g><g><g><g><path d="m36.833889 21.6487904c.0011902.4192371-.5462685.7302532-.5474434.3160648-.0011864-.4194584.5462685-.730299.5474434-.3160648z" fill="#aa6256" fill-opacity="1" data-original-color="#aa6256ff" stroke="none" stroke-opacity="1"/></g><g><path d="m36.833889 24.0050182c.0004921.1739178-.1212769.3852921-.2726326.4726772s-.2743149.0173073-.2748108-.1566124c-.0011864-.4194583.5462685-.7302989.5474434-.3160648z" fill="#aa6256" fill-opacity="1" data-original-color="#aa6256ff" stroke="none" stroke-opacity="1"/></g></g><g><g><path d="m37.2935867 22.7118225c.0003242.1135902-.0792084.2516441-.1780624.3087177s-.1791649.0113049-.1794853-.1022873c-.0007782-.2739601.356781-.4769783.3575477-.2064304z" fill="#aa6256" fill-opacity="1" data-original-color="#aa6256ff" stroke="none" stroke-opacity="1"/></g></g><g><g><path d="m37.6892433 23.2733459c.0988541-.0570736.1789093-.0108662.1792336.1024303.0003204.1135921-.0792122.251646-.1780663.3087196-.0988541.0570717-.1791611.0113029-.1794853-.1022873-.0003204-.1132983.079464-.251789.178318-.3088626z" fill="#aa6256" fill-opacity="1" data-original-color="#aa6256ff" stroke="none" stroke-opacity="1"/></g></g></g><g><g><g><path d="m39.0502472 20.3823547c.0011864.419239-.5462685.7302551-.5474434.3160667-.0004921-.1734695.5462685-.7303008.5474434-.3160667z" fill="#aa6256" fill-opacity="1" data-original-color="#aa6256ff" stroke="none" stroke-opacity="1"/></g><g><path d="m38.7758293 22.5817528c.3604851-.2081261.3652077.4196854.0017815.6295071-.1513519.0873852-.2743149.0173073-.274807-.1566105-.0004921-.1734696.1216698-.3855114.2730255-.4728966z" fill="#aa6256" fill-opacity="1" data-original-color="#aa6256ff" stroke="none" stroke-opacity="1"/></g></g><g><g><path d="m39.5099449 21.4453888c.0003204.1135902-.0792122.2516441-.1780663.3087177s-.1791611.0113029-.1794815-.1022873c-.0007781-.2739601.3567811-.4769783.3575478-.2064304z" fill="#aa6256" fill-opacity="1" data-original-color="#aa6256ff" stroke="none" stroke-opacity="1"/></g></g><g><g><path d="m38.1334534 21.8257923c.0007782.2738171-.356781.4769497-.3575478.2064323-.0003242-.1132984.356781-.4769802.3575478-.2064323z" fill="#aa6256" fill-opacity="1" data-original-color="#aa6256ff" stroke="none" stroke-opacity="1"/></g></g><g><g><path d="m36.0096703 23.0922279c.0007744.2738152-.3567848.4769478-.3575516.2064304-.0003205-.1132983.3567848-.4769782.3575516-.2064304z" fill="#aa6256" fill-opacity="1" data-original-color="#aa6256ff" stroke="none" stroke-opacity="1"/></g></g><g><g><path d="m33.7425079 24.2083511c.0007744.2738171-.356781.4769497-.3575478.2064323-.0003242-.1132983.3567811-.4769801.3575478-.2064323z" fill="#aa6256" fill-opacity="1" data-original-color="#aa6256ff" stroke="none" stroke-opacity="1"/></g></g><g><g><path d="m31.5769558 25.5508862c.0007763.2738152-.3567829.4769497-.3575497.2064304-.0003204-.1132965.3567829-.4769783.3575497-.2064304z" fill="#aa6256" fill-opacity="1" data-original-color="#aa6256ff" stroke="none" stroke-opacity="1"/></g></g></g></g><g><g><g><g><path d="m21.0975723 25.4480934c-.0011883.4192371.5462666.7302532.5474415.3160648.0004921-.1734695-.5462665-.7302989-.5474415-.3160648z" fill="#aa6256" fill-opacity="1" data-original-color="#aa6256ff" stroke="none" stroke-opacity="1"/></g></g><g><g><path d="m22.7798615 26.4563236c-.0011883.419239.5462666.7302551.5474415.3160667.000492-.1734695-.5462685-.7303008-.5474415-.3160667z" fill="#aa6256" fill-opacity="1" data-original-color="#aa6256ff" stroke="none" stroke-opacity="1"/></g></g><g><g><path d="m20.6378727 26.5111256c-.0007763.2738152.3567829.4769497.3575497.2064304.0003223-.1132965-.356781-.4769783-.3575497-.2064304z" fill="#aa6256" fill-opacity="1" data-original-color="#aa6256ff" stroke="none" stroke-opacity="1"/></g></g><g><g><path d="m22.4834919 28.2342472c-.0003223.1135902.0792103.2516441.1780643.3087177s.179163.0113029.1794834-.1022873c.0007783-.2739601-.3567809-.4769783-.3575477-.2064304z" fill="#aa6256" fill-opacity="1" data-original-color="#aa6256ff" stroke="none" stroke-opacity="1"/></g></g><g><g><path d="m20.0629864 27.1750793c-.0007763.2738171.3567829.4769497.3575497.2064323.0003204-.1132983-.356783-.4769801-.3575497-.2064323z" fill="#aa6256" fill-opacity="1" data-original-color="#aa6256ff" stroke="none" stroke-opacity="1"/></g></g></g><g><g><g><path d="m19.1556339 24.024828c-.1513557-.0873852-.2739277-.0166397-.2744179.1568298-.000494.1739197.1212769.3852921.2726326.4726772.1513538.0873852.2743149.0173073.2748089-.1566105.0004902-.1734695-.1216697-.3855114-.2730236-.4728965z" fill="#aa6256" fill-opacity="1" data-original-color="#aa6256ff" stroke="none" stroke-opacity="1"/></g><g><path d="m18.881216 26.5378876c-.0011902.4192371.5462666.7302532.5474415.3160648.0004902-.1734695-.5462684-.730299-.5474415-.3160648z" fill="#aa6256" fill-opacity="1" data-original-color="#aa6256ff" stroke="none" stroke-opacity="1"/></g><g><path d="m21.1914272 27.861248c-.0004921.1739178.1212788.3852921.2726326.4726772.1513557.0873852.2743168.0173073.2748089-.1566105.0011902-.4194583-.5462665-.7303008-.5474415-.3160667z" fill="#aa6256" fill-opacity="1" data-original-color="#aa6256ff" stroke="none" stroke-opacity="1"/></g><g><path d="m23.4421253 29.0036259c-.1513538-.0873833-.2739258-.0166378-.2744179.1568317-.0004921.1739178.1212788.3852921.2726345.4726753.1513538.0873852.2743149.0173073.2748089-.1566105.0004902-.1734695-.1216697-.3855114-.2730255-.4728965z" fill="#aa6256" fill-opacity="1" data-original-color="#aa6256ff" stroke="none" stroke-opacity="1"/></g></g><g><g><path d="m18.6007462 25.1422615c-.2354431-.1359348-.2385273.274107-.0011654.4111481.0988541.0570736.179163.0113029.1794853-.1022873.0003204-.1132984-.0794659-.2517891-.1783199-.3088608z" fill="#aa6256" fill-opacity="1" data-original-color="#aa6256ff" stroke="none" stroke-opacity="1"/></g></g><g><g><path d="m21.9217911 26.8227825c-.0007763.2738171.3567829.4769497.3575497.2064323.0003223-.1132984-.3567811-.4769802-.3575497-.2064323z" fill="#aa6256" fill-opacity="1" data-original-color="#aa6256ff" stroke="none" stroke-opacity="1"/></g></g><g><g><path d="m23.1485291 27.91605c-.0007763.2738152.3567829.4769478.3575497.2064304.0003204-.1132965-.356783-.4769783-.3575497-.2064304z" fill="#aa6256" fill-opacity="1" data-original-color="#aa6256ff" stroke="none" stroke-opacity="1"/></g></g><g><g><path d="m17.8466282 25.9086456c-.0007744.2738152.3567829.4769497.3575497.2064304.0003223-.1132964-.356781-.4769782-.3575497-.2064304z" fill="#aa6256" fill-opacity="1" data-original-color="#aa6256ff" stroke="none" stroke-opacity="1"/></g></g></g><g><g><g><path d="m16.9392757 22.7583942c-.1513538-.0873852-.2739258-.0166397-.2744179.1568298-.0004921.1739178.1212788.3852921.2726345.4726772.1513538.0873852.2743149.0173073.274807-.1566124.0004921-.1734675-.1216678-.3855113-.2730236-.4728946z" fill="#aa6256" fill-opacity="1" data-original-color="#aa6256ff" stroke="none" stroke-opacity="1"/></g><g><path d="m16.6648579 25.271452c-.0011883.419239.5462685.7302551.5474415.3160667.000492-.1734696-.5462666-.7303009-.5474415-.3160667z" fill="#aa6256" fill-opacity="1" data-original-color="#aa6256ff" stroke="none" stroke-opacity="1"/></g></g><g><g><path d="m16.3843899 23.8758259c-.0988541-.0570736-.1789093-.0108662-.1792297.1024303-.0003223.1135921.0792103.251646.1780643.3087196.0988541.0570717.179163.0113029.1794834-.1022873.0003223-.1132983-.079464-.251789-.178318-.3088626z" fill="#aa6256" fill-opacity="1" data-original-color="#aa6256ff" stroke="none" stroke-opacity="1"/></g></g><g><g><path d="m15.8095016 24.5397816c-.0988531-.0570736-.1789083-.0108681-.1792297.1024303-.0007763.2738152.3567829.4769478.3575497.2064304.0003214-.1132984-.0794659-.251789-.17832-.3088607z" fill="#aa6256" fill-opacity="1" data-original-color="#aa6256ff" stroke="none" stroke-opacity="1"/></g></g></g><g><g><g><path d="m14.7229195 21.4919586c-.1513548-.0873833-.2739267-.0166378-.2744179.1568317-.000493.1739178.1212778.3852921.2726326.4726753.1513548.0873852.2743158.0173073.2748089-.1566105.0004921-.1734694-.1216688-.3855113-.2730236-.4728965z" fill="#aa6256" fill-opacity="1" data-original-color="#aa6256ff" stroke="none" stroke-opacity="1"/></g><g><path d="m14.7229195 23.8481884c-.1513548-.0873852-.2739267-.0166397-.2744179.1568298-.000493.1739178.1212778.3852921.2726326.4726772s.2743158.0173073.2748089-.1566124c.0004921-.1734676-.1216688-.3855113-.2730236-.4728946z" fill="#aa6256" fill-opacity="1" data-original-color="#aa6256ff" stroke="none" stroke-opacity="1"/></g></g><g><g><path d="m14.1680326 22.6093922c-.0988541-.0570736-.1789093-.0108681-.1792297.1024303-.0003223.1135902.0792103.2516441.1780643.3087177.0988531.0570736.179163.0113049.1794844-.1022873.0003214-.1132965-.0794649-.2517871-.178319-.3088607z" fill="#aa6256" fill-opacity="1" data-original-color="#aa6256ff" stroke="none" stroke-opacity="1"/></g></g><g><g><path d="m13.5931454 23.2733459c-.0988541-.0570736-.1789093-.0108662-.1792297.1024303-.0003223.1135921.0792103.251646.1780643.3087196.0988531.0570717.179162.0113029.1794844-.1022873.0003213-.1132983-.079465-.251789-.178319-.3088626z" fill="#aa6256" fill-opacity="1" data-original-color="#aa6256ff" stroke="none" stroke-opacity="1"/></g></g></g><g><g><g><path d="m12.2321444 20.3823547c-.0011883.419239.5462675.7302551.5474415.3160667.000492-.1734695-.5462676-.7303008-.5474415-.3160667z" fill="#aa6256" fill-opacity="1" data-original-color="#aa6256ff" stroke="none" stroke-opacity="1"/></g><g><path d="m12.5065622 22.5817528c-.1513548-.0873833-.2739258-.0166378-.2744179.1568317-.000493.1739178.1212788.3852921.2726336.4726753.1513548.0873852.2743149.0173073.2748079-.1566105.0004921-.1734695-.1216688-.3855113-.2730236-.4728965z" fill="#aa6256" fill-opacity="1" data-original-color="#aa6256ff" stroke="none" stroke-opacity="1"/></g></g><g><g><path d="m11.7724457 21.4453888c-.0003223.1135902.0792103.2516441.1780643.3087177s.179163.0113029.1794853-.1022873c.0007763-.2739601-.3567829-.4769783-.3575496-.2064304z" fill="#aa6256" fill-opacity="1" data-original-color="#aa6256ff" stroke="none" stroke-opacity="1"/></g></g><g><g><path d="m13.328166 21.723362c-.0988531-.0570736-.1789083-.0108662-.1792297.1024303-.0003214.1135921.0792103.251646.1780643.3087196.0988541.0570717.179163.0113029.1794853-.1022873.0003214-.1132984-.0794658-.251789-.1783199-.3088626z" fill="#aa6256" fill-opacity="1" data-original-color="#aa6256ff" stroke="none" stroke-opacity="1"/></g></g><g><g><path d="m15.451951 22.9897976c-.0988541-.0570736-.1789093-.0108681-.1792297.1024303-.0003223.1135902.0792103.2516441.1780643.3087177.0988531.0570736.179163.0113029.1794844-.1022873.0003214-.1132983-.0794649-.2517871-.178319-.3088607z" fill="#aa6256" fill-opacity="1" data-original-color="#aa6256ff" stroke="none" stroke-opacity="1"/></g></g><g><g><path d="m17.7191124 24.1059208c-.0988541-.0570736-.1789093-.0108662-.1792297.1024303-.0003223.1135902.0792103.251646.1780643.3087177.0988541.0570736.179163.0113049.1794853-.1022854.0003205-.1132983-.0794658-.251789-.1783199-.3088626z" fill="#aa6256" fill-opacity="1" data-original-color="#aa6256ff" stroke="none" stroke-opacity="1"/></g></g><g><g><path d="m19.7054348 25.5508862c-.0007763.2738152.3567829.4769497.3575497.2064304.0003204-.1132965-.3567829-.4769783-.3575497-.2064304z" fill="#aa6256" fill-opacity="1" data-original-color="#aa6256ff" stroke="none" stroke-opacity="1"/></g></g></g></g><g><g><path d="m28.658989 9.5283976c-.073307.4272747-.8494873.6490421-1.7319469.4976425-.8824577-.1513996-1.5402832-.619194-1.4669781-1.0464697s.8494473-.6490974 1.731905-.4976969c.8824596.1513996 1.5403251.6192484 1.46702 1.0465241z" fill="#8a4852" fill-opacity="1" data-original-color="#8a4852ff" stroke="none" stroke-opacity="1"/></g><g><path d="m28.6505508 9.3681746c-.9275799-.710968-2.7205105-.6184769-2.8464394.0533686-.0089034.0533685-.0089034.1067371.0089036.1601047-.2490883-.1779127-.391386-.4002895-.3558254-.6048594.08008-.4269466.8539486-.6493235 1.7345543-.4981222.7649631.1334477 1.3698234.5070257 1.4588069.8895083z" fill="#aa6256" fill-opacity="1" data-original-color="#aa6256ff" stroke="none" stroke-opacity="1"/></g><g><path d="m31.9136829 11.6520014c.3731899.0085821.4823666.0763845.5910358.6689739.0146484.0798979.0256996.1641769-.0011406.2408457-.0185471.0529909-.0540009.0983906-.0925522.139205-.0939102.0994225-.2100372.1777411-.3374062.2275496-.2060337.0805712-.4329529.0851574-.6541729.083559-.1063805-.0007687-.21385-.002862-.31707-.0286055-.2128258-.0530777-.3967075-.2112684-.480978-.4137783-.3003272-.7217121.5103723-.9357309 1.2922841-.9177494z" fill="#8a4852" fill-opacity="1" data-original-color="#8a4852ff" stroke="none" stroke-opacity="1"/></g><g><path d="m32.4220581 12.0011406c-.0444641-.0089035-.0889816-.0089035-.1334457-.0089035-.4358521-.0089045-.9072628.0444641-1.2452812.3202095 0 0-.0622711.0889292-.0800781.1245441-.044466.1690092-.0355625.311307.0355606.4714117.0089035.017808.0089035.035615.0267105.0445194-.1779118-.0711765-.329113-.2046242-.4002895-.3825369-.3197994-.7193651.5125904-.9320431 1.2897987-.9161663.3680859 0 .4432964.119586.4981213.311307-.0000001.0089035.0089034.0267115.0089034.035615z" fill="#aa6256" fill-opacity="1" data-original-color="#aa6256ff" stroke="none" stroke-opacity="1"/></g><g><path d="m20.0568562 11.8260746c.3376503-.277915.8053303-.3323784 1.2425308-.3223248.3583393.0082407.4406433.1168909.5018482.3104544.0445824.1409874.1365013.460947.088047.5993652-.0513344.1466532-.2656021.3024807-.4299603.3667545-.284399.1112175-.8092308.0953588-.971241.0549536-.3664875-.0914001-.6279449-.4839993-.5111237-.8836575.010439-.0357093.079899-.1255454.079899-.1255454z" fill="#8a4852" fill-opacity="1" data-original-color="#8a4852ff" stroke="none" stroke-opacity="1"/></g><g><path d="m21.8077621 11.8528891c-.0444641-.0089035-.0889816-.0089035-.1334476-.0089035-.4358501-.0089045-.9072609.0444641-1.2452793.3202095 0 0-.062273.0889292-.08008.1245441-.0444641.1690092-.0355606.311307.0355606.4714117.0089035.017808.0089035.035615.0267124.0445194-.3625526-.1450434-.5274372-.5058289-.4358521-.8539486.0089054-.0355606.0800266-.1245441.0800266-.1245441.3380165-.2757454.8094826-.329114 1.2453346-.3202105.3680859 0 .4432964.1195869.4981213.311307 0 .0089035.0089035.0267115.0089035.035615z" fill="#aa6256" fill-opacity="1" data-original-color="#aa6256ff" stroke="none" stroke-opacity="1"/></g><g><path d="m27.6390285 12.9956455c.2013779.0777931.3682785.3178196.318388.7223625-.0136013.1102724-.0457211.1713591-.2336006.2013617-.474123.0757151-1.5964928.1712084-1.8792534-.217205-.1215973-.1670341-.1270542-.4653587.027771-.6180315.1272564-.1254864.337326-.1235008.5030613-.1271648.1367779-.0030242 1.115614-.0185033 1.2636337.0386771z" fill="#8a4852" fill-opacity="1" data-original-color="#8a4852ff" stroke="none" stroke-opacity="1"/></g><g><path d="m27.9337864 13.3418303c-.1469326-.0652485-.2789268-.0448866-1.2575893-.0448866-.1571388.0111704-.37047 0-.5052013.1347294-.1010799.1010122-.1347294.2919359-.0898418.4490747-.1010818-.0336475-.1796169-.0897741-.2358112-.179616-.1234894-.1684465-.1234894-.4603825.0224781-.6175213.1347294-.123559.3368244-.123559.50527-.123559.1014385-.00348 1.0968704-.0236187 1.2687588.0337162.1347294.0561256.2245712.1684465.2806969.3031759-.0000002.0111705.0112398.0336476.0112398.0448867z" fill="#aa6256" fill-opacity="1" data-original-color="#aa6256ff" stroke="none" stroke-opacity="1"/></g><g><path d="m32.1462975 15.2792616c.1015778.0001802.2058372.0008392.3005905.0374422.1323738.051136.2317619.1695042.2815399.302392s.0542183.2791319.03685.4199705c-.0043144.0349846-.0102806.0708008-.0284119.1010284-.0405045.0675354-.1274261.0879154-.2051888.1003342-.3968582.0633755-.8010159.0809059-1.20187.0521297-.2376442-.0170593-.5264606-.0620232-.6773815-.2693367-.1215992-.1670332-.1270561-.4653578.0277691-.6180305.1272564-.1254864.337328-.1235008.5030613-.1271648.3206692-.0070887.6422959.0006647.9630414.001235z" fill="#8a4852" fill-opacity="1" data-original-color="#8a4852ff" stroke="none" stroke-opacity="1"/></g><g><path d="m32.7416496 15.6628885c-.1010818-.0448866-.1909256-.0448866-.2919388-.0448866h-.9656506c-.1571388.0111704-.370472 0-.5052013.1347294-.1010818.1010122-.1347294.2919369-.0898438.4490757-.1010799-.0336494-.179615-.0897751-.2358093-.1796169-.1234913-.1684465-.1234913-.4603825.0224781-.6175213.1347294-.123559.3368225-.123559.5052681-.123559.3255844-.0111704.6399994 0 .9655857 0 .101078 0 .2020912 0 .3031731.0337162.1347313.0561256.2245712.1684465.2806969.3031759 0 .0111704.0112419.0336476.0112419.0448866z" fill="#aa6256" fill-opacity="1" data-original-color="#aa6256ff" stroke="none" stroke-opacity="1"/></g><g><path d="m21.8816051 8.4354658c-.1015759.0001802-.2058372.0008392-.3005905.0374432-.1323719.051136-.2317581.1695032-.281538.3023911-.0497799.1328888-.0542183.2791328-.03685.4199715.0043144.0349846.0102806.0707998.0284119.1010284.0405064.0675344.1274242.0879145.2051888.1003332.3968582.0633755.8010159.0809059 1.20187.0521307.2376461-.0170593.5264626-.0620241.6773834-.2693367.1215973-.1670332.1270542-.4653587-.027771-.6180315-.1272564-.1254864-.337326-.1235008-.5030613-.1271648-.3206692-.0070888-.642294.0006656-.9630433.0012349z" fill="#8a4852" fill-opacity="1" data-original-color="#8a4852ff" stroke="none" stroke-opacity="1"/></g><g><path d="m21.2862568 8.8190937c.1010818-.0448875.1909237-.0448875.2919369-.0448875h.9656525c.1571388.0111704.37047 0 .5051994.1347294.1010818.1010132.1347294.2919369.0898438.4490757.1010799-.0336485.179615-.0897741.2358093-.1796169.1234913-.1684456.1234913-.4603825-.0224762-.6175213-.1347294-.123559-.3368244-.123559-.50527-.123559-.3255844-.0111704-.6399994 0-.9655838 0-.1010818 0-.2020931 0-.303175.0337172-.1347294.0561256-.2245712.1684456-.2806988.303175 0 .0111702-.0112381.0336484-.0112381.0448874z" fill="#aa6256" fill-opacity="1" data-original-color="#aa6256ff" stroke="none" stroke-opacity="1"/></g><g><path d="m22.931509 15.9478102c.4631195.0996866.7217693.5717134.602972.8315153-.062624.1369572-.2126713.208744-.3541889.2602425-.7706776.2804546-1.6279697.2368374-1.9618931.1146412-.2243919-.0821152-.4036503-.2781944-.4653645-.5090313-.0489616-.1831398-.0220814-.3801384.0647621-.5475407.0843239-.1625481.1708241-.1708422.3463764-.1716909 1.4085466-.0068093 1.6294042-.0078269 1.767336.0218639z" fill="#8a4852" fill-opacity="1" data-original-color="#8a4852ff" stroke="none" stroke-opacity="1"/></g><g><path d="m23.4654236 16.3389435c-.1324043-.0793781-.3447971-.0800247-.4981232-.0800247-1.6977577.0089912-1.6490746-.0589123-1.7612095.1779118-.1287575.2318096-.1131306.4766827.0089035.7205009-.2223778-.0889835-.4002895-.2846489-.4625626-.5159302-.0444641-.1779137-.017807-.373579.062273-.5425873.1146965-.2065687.0935841-.1779137 1.7612095-.1779137.1156406 0 .2401848 0 .3558254.0266571.222376.0533696.4269467.1957207.5336839.3913861z" fill="#aa6256" fill-opacity="1" data-original-color="#aa6256ff" stroke="none" stroke-opacity="1"/></g><g><path d="m36.2430916 13.3513575c.1134834-.0002203.2280006-.0003366.3389435.0235443.2336044.0502834.4406738.2118311.5462761.4261818.056469.1146154.0838013.2532425.0306702.369441-.0599213.1310463-.2034912.1997337-.3389015.2490101-.5246544.1909246-1.0975685.2475424-1.6494484.1630039-.0772018-.0118265-.1544113-.0264721-.2277603-.0533133-.2147064-.0785704-.3862267-.2661858-.4452744-.4870586-.0468483-.1752338-.0211296-.3637295.0619659-.5239058.0806847-.15553.1634483-.1634665.3314247-.164279.4506912-.0021781.9014091-.0017499 1.3521042-.0026244z" fill="#8a4852" fill-opacity="1" data-original-color="#8a4852ff" stroke="none" stroke-opacity="1"/></g><g><path d="m37.0929031 13.7491522c-.0425453-.025506-.0936127-.0425453-.1361542-.0510645-.1191711-.025506-.2298203-.025506-.3404694-.025506h-1.3532372c-.1702347 0-.2553749.0085192-.3319473.1702328-.0850906.1531935-.1106491.340414-.0595856.519166.0170403.0595837.0425453.1191683.0681038.1702328-.2127762-.0851421-.3830109-.2723618-.4425926-.49366-.0425453-.1702328-.0170403-.3574524.0595818-.519166.0850906-.1532459.1702347-.1617136.3319473-.1617136.4510612-.0085192.9021759-.0085192 1.353241-.0085192.1106491 0 .2298164 0 .3404655.025506.2127763.0510645.408516.1872721.5106469.3744917z" fill="#aa6256" fill-opacity="1" data-original-color="#aa6256ff" stroke="none" stroke-opacity="1"/></g><g><path d="m27.8252258 16.6036625c.0991745-.0001926.1992493-.0002956.2962017.0205746.2041435.0439415.3850994.1851158.4773865.3724365.049345.1001606.0732327.2213058.0268002.3228512-.0523643.1145191-.1778278.1745453-.2961617.2176075-.4584904.1668472-.959156.2163258-1.4414368.1424484-.0674686-.0103359-.1349411-.0231342-.1990376-.0465908-.1876297-.0686626-.3375206-.2326164-.3891239-.4256363-.0409412-.1531353-.0184631-.3178596.0541515-.4578362.070509-.1359177.1428375-.1428528.2896309-.1435623.3938542-.0019035.7877313-.0015297 1.1815892-.0022926z" fill="#8a4852" fill-opacity="1" data-original-color="#8a4852ff" stroke="none" stroke-opacity="1"/></g><g><path d="m28.5678692 16.9512901c-.0371799-.0222893-.0818043-.0371799-.1189842-.0446243-.1041393-.0222893-.2008343-.0222893-.2975292-.0222893h-1.1825848c-.1487656 0-.2231712.0074444-.2900848.1487637-.0743599.1338749-.0966949.2974854-.0520706.4536953.0148907.0520706.0371799.1041412.059515.1487656-.1859455-.0744057-.3347092-.2380142-.3867798-.431406-.0371799-.1487637-.0148907-.3123741.0520706-.4536934.074358-.1339207.1487637-.1413212.2900848-.1413212.3941784-.0074444.7884045-.0074444 1.1825848-.0074444.0966949 0 .2008343 0 .2975292.0222893.1859455.0446262.3570003.1636562.446249.3272647z" fill="#aa6256" fill-opacity="1" data-original-color="#aa6256ff" stroke="none" stroke-opacity="1"/></g><g><path d="m16.2032661 12.8812485c-.3859854-.0890102-.7494202.1764584-.7517576.4153185-.0037184.3799591 1.0895281 1.0595922 1.6201429 1.1063271.3609238.0317898.6945992-.2539663.6784916-.6575556-.0061054-.1529951-.0686417-.1899948-.2012348-.2529831-1.0638542-.5053902-1.2306823-.5845967-1.3456421-.6111069z" fill="#8a4852" fill-opacity="1" data-original-color="#8a4852ff" stroke="none" stroke-opacity="1"/></g><g><path d="m15.6601849 12.9877224c.1284208-.0130663.2894316.0618725.4055004.1163254 1.1835117.5629034 1.2692413.5315361 1.2700558.7601614.0151443.2212076-.0836525.4010267-.2626209.5422583.3602238.0209265.6805305-.2448606.6789455-.6591396-.0142937-.2092361-.0226345-.174942-1.2700558-.7601624-.0875397-.041069-.1818199-.0852995-.2788277-.1061888-.187294-.0385761-.3927078-.0034666-.5429973.1067457z" fill="#aa6256" fill-opacity="1" data-original-color="#aa6256ff" stroke="none" stroke-opacity="1"/></g></g><g><path d="m24.9346256 26.9672031c0 .1665058-.1332054.3052673-.3052673.3052673-.1665077 0-.3052673-.1387615-.3052673-.3052673 0-.4023552.6105346-.4071769.6105346 0z" fill="#aa6256" fill-opacity="1" data-original-color="#aa6256ff" stroke="none" stroke-opacity="1"/></g><g><path d="m25.9414978 29.1092587c0 .1665058-.1332054.3052654-.3052673.3052654-.1665058 0-.3052654-.1387596-.3052654-.3052654 0-.1720619.1387596-.3053017.3052654-.3053017.1720619 0 .3052673.1332397.3052673.3053017z" fill="#aa6256" fill-opacity="1" data-original-color="#aa6256ff" stroke="none" stroke-opacity="1"/></g><g><path d="m25.6835804 27.9722328c0 .1124115-.0899296.2060909-.2060909.2060909-.1124115 0-.2060909-.0936794-.2060909-.2060909 0-.1161613.0936794-.2061138.2060909-.2061138.1161613 0 .2060909.0899525.2060909.2061138z" fill="#aa6256" fill-opacity="1" data-original-color="#aa6256ff" stroke="none" stroke-opacity="1"/></g><g><path d="m24.9346256 29.6707516c0 .1124115-.0899296.2060909-.2060909.2060909-.1124115 0-.2060909-.0936794-.2060909-.2060909 0-.1161613.0936794-.2061138.2060909-.2061138.1161613 0 .2060909.0899524.2060909.2061138z" fill="#aa6256" fill-opacity="1" data-original-color="#aa6256ff" stroke="none" stroke-opacity="1"/></g><g><path d="m26.0724831 30.2462711c0 .1124115-.0899277.2060909-.2060909.2060909-.1124096 0-.2060909-.0936794-.2060909-.2060909 0-.1161613.0936813-.2061138.2060909-.2061138.1161632 0 .2060909.0899525.2060909.2061138z" fill="#aa6256" fill-opacity="1" data-original-color="#aa6256ff" stroke="none" stroke-opacity="1"/></g><g><path d="m24.6293583 28.4132214c0 .1124115-.0899296.2060909-.2060909.2060909-.1124115 0-.2060909-.0936794-.2060909-.2060909 0-.1161613.0936794-.2061138.2060909-.2061138.1161613-.0000001.2060909.0899524.2060909.2061138z" fill="#aa6256" fill-opacity="1" data-original-color="#aa6256ff" stroke="none" stroke-opacity="1"/></g></g></g><g><path d="m22.6341114 19.7585011c-1.0046253 0-1.8174686.8128452-1.8174686 1.8174686 0-1.0047874-.8125057-1.8174686-1.8174572-1.8174686.5014267 0 .9571056-.2040863 1.2861252-.5313435.3272457-.3290081.531332-.784687.531332-1.286108 0 .501421.2040977.9570999.5313435 1.286108.329008.3272571.7846984.5313435 1.2861251.5313435z" fill="#ffffff" fill-opacity="1" data-original-color="#ffffffff" stroke="none" stroke-opacity="1"/></g></g></g></g></svg>