<svg id="Capa_1" enable-background="new 0 0 512 512" height="300" viewBox="0 0 512 512" width="300" xmlns="http://www.w3.org/2000/svg" version="1.1" xmlns:xlink="http://www.w3.org/1999/xlink" xmlns:svgjs="http://svgjs.dev/svgjs"><g width="100%" height="100%" transform="matrix(1,0,0,1,0,0)"><g><g><path d="m129.69 131.818h186.171v30h-186.171z" fill="#ffffff" fill-opacity="1" data-original-color="#ffffffff" stroke="none" stroke-opacity="1"/></g><g><g><g><g><g><g><g id="XMLID_2504_"><g id="XMLID_2505_"><g id="XMLID_2506_"><g id="XMLID_2507_"><g id="XMLID_2508_"><g id="XMLID_2509_"><g id="XMLID_2510_"><g id="XMLID_2511_"><g id="XMLID_2512_"><g id="XMLID_2513_"><g id="XMLID_2514_"><g id="XMLID_2515_"><g id="XMLID_2516_"><g id="XMLID_2517_"><g id="XMLID_2518_"><circle cx="256" cy="256" fill="#ffffff" r="256" fill-opacity="0" data-original-color="#ffa21aff" stroke="none" stroke-opacity="1"/></g></g></g></g></g></g></g></g></g></g></g></g></g></g></g></g></g></g></g></g></g><path d="m512 256c0-1.526-.014-3.049-.04-4.569l-147.489-147.489-302.609 253.044 151.475 151.475c13.874 2.327 28.127 3.539 42.663 3.539 141.385 0 256-114.615 256-256z" fill="#ffffff" fill-opacity="0" data-original-color="#ed7600ff" stroke="none" stroke-opacity="1"/><g><path d="m122.015 368.851 16.32 37.792h235.33l16.32-37.792z" fill="#d8d8d8" fill-opacity="1" data-original-color="#d8d8d8ff" stroke="none" stroke-opacity="1"/><g><g><g><path d="m389.99 368.85-.08.18-16.24 37.61h-117.67v-37.79z" fill="#bcbcbc" fill-opacity="1" data-original-color="#bcbcbcff" stroke="none" stroke-opacity="1"/></g></g></g><path d="m417.9 304.29h-323.8l34.79-143.17c10.035-41.308 47.027-59.687 89.537-59.687h75.146c42.51 0 79.502 18.379 89.537 59.687z" fill="#915f3d" fill-opacity="1" data-original-color="#915f3dff" stroke="none" stroke-opacity="1"/><path d="m417.9 304.29h-161.9v-202.86h37.57c42.51 0 79.51 18.38 89.54 59.69l34.48 141.89z" fill="#6d4225" fill-opacity="1" data-original-color="#6d4225ff" stroke="none" stroke-opacity="1"/><path d="m413.365 369.033h-314.73c-34.322 0-62.146-27.824-62.146-62.146v-3.876h439.022v3.876c0 34.323-27.824 62.146-62.146 62.146z" fill="#ffffff" fill-opacity="1" data-original-color="#ffffffff" stroke="none" stroke-opacity="1"/><path d="m475.51 303.01v3.88c0 34.32-27.82 62.14-62.14 62.14h-157.37v-66.02z" fill="#eaeaea" fill-opacity="1" data-original-color="#eaeaeaff" stroke="none" stroke-opacity="1"/></g><path d="m383.11 161.12h-26.965c-12.109 0-21.925 9.816-21.925 21.925v3.99c0 12.109-9.816 21.925-21.925 21.925-12.109 0-21.925-9.816-21.925-21.925v-3.99c0-12.109-9.816-21.925-21.925-21.925h-23.23c-12.109 0-21.925 9.816-21.925 21.925v33.58c0 12.109-9.816 21.925-21.925 21.925-12.109 0-21.925-9.816-21.925-21.925v-33.58c0-12.109-9.816-21.925-21.925-21.925h-28.625l9.79-40.3c4.29-17.658 20.103-30.09 38.275-30.09h158.09c18.172 0 33.985 12.432 38.275 30.09z" fill="#563b22" fill-opacity="1" data-original-color="#563b22ff" stroke="none" stroke-opacity="1"/><path d="m383.11 161.12h-26.97c-12.1 0-21.92 9.82-21.92 21.92v3.99c0 12.11-9.82 21.93-21.92 21.93h-.01c-12.1 0-21.92-9.82-21.92-21.93v-3.99c0-12.1-9.82-21.92-21.92-21.92h-12.45v-70.39h79.05c18.17 0 33.98 12.43 38.27 30.09z" fill="#331d0e" fill-opacity="1" data-original-color="#331d0eff" stroke="none" stroke-opacity="1"/></g></g></svg>