<svg height="512" viewBox="0 0 64 64" width="512" xmlns="http://www.w3.org/2000/svg" xmlns:xlink="http://www.w3.org/1999/xlink"><linearGradient id="linear-gradient" gradientUnits="userSpaceOnUse" x1="22" x2="64.01" y1="42.99" y2="42.99"><stop offset="0" stop-color="#d1a788"/><stop offset="1" stop-color="#f2d3b8"/></linearGradient><linearGradient id="linear-gradient-2" gradientUnits="userSpaceOnUse" x1="33" x2="43" y1="37" y2="37"><stop offset="0" stop-color="#9b756d"/><stop offset="1" stop-color="#bc9388"/></linearGradient><linearGradient id="linear-gradient-3" x1="54" x2="59.85" xlink:href="#linear-gradient-2" y1="37.51" y2="37.51"/><linearGradient id="linear-gradient-4" x1="45" x2="51" xlink:href="#linear-gradient-2" y1="50" y2="50"/><linearGradient id="linear-gradient-5" x1="31" x2="37" xlink:href="#linear-gradient-2" y1="54" y2="54"/><linearGradient id="linear-gradient-6" x1="26" x2="28" xlink:href="#linear-gradient-2" y1="39" y2="39"/><linearGradient id="linear-gradient-7" x1="45" x2="47" xlink:href="#linear-gradient-2" y1="59" y2="59"/><linearGradient id="linear-gradient-8" x1="49" x2="51" xlink:href="#linear-gradient-2" y1="40" y2="40"/><linearGradient id="linear-gradient-9" x1="38" x2="40" xlink:href="#linear-gradient-2" y1="27" y2="27"/><linearGradient id="linear-gradient-10" x1="48" x2="54" xlink:href="#linear-gradient" y1="13.5" y2="13.5"/><linearGradient id="linear-gradient-11" x1="58" x2="60" xlink:href="#linear-gradient-2" y1="25" y2="25"/><linearGradient id="linear-gradient-12" x1="60" x2="64" xlink:href="#linear-gradient" y1="19.5" y2="19.5"/><linearGradient id="linear-gradient-13" x1="57" x2="62" xlink:href="#linear-gradient" y1="31.5" y2="31.5"/><g id="Biscuit"><circle cx="29" cy="29" fill="#cba07a" r="29"/><g fill="#8a6762"><circle cx="30" cy="12" r="5"/><circle cx="28" cy="26" r="4"/><circle cx="14" cy="17" r="3"/><circle cx="48" cy="24" r="3"/><circle cx="43" cy="12" r="1"/><circle cx="22" cy="7" r="1"/><circle cx="49" cy="33" r="1"/><circle cx="20" cy="47" r="1"/><circle cx="13" cy="33" r="7"/><circle cx="38" cy="42" r="9"/></g><path d="m43 64a21 21 0 1 1 2-41.9 6 6 0 0 0 8.4 5.4 8 8 0 0 0 9.91 10.16 21 21 0 0 1 -20.31 26.34z" fill="url(#linear-gradient)"/><circle cx="38" cy="37" fill="url(#linear-gradient-2)" r="5"/><path d="m59.85 37.92a3 3 0 1 1 -5.09-2.92 8 8 0 0 0 5.09 2.92z" fill="url(#linear-gradient-3)"/><circle cx="48" cy="50" fill="url(#linear-gradient-4)" r="3"/><circle cx="34" cy="54" fill="url(#linear-gradient-5)" r="3"/><circle cx="27" cy="39" fill="url(#linear-gradient-6)" r="1"/><circle cx="46" cy="59" fill="url(#linear-gradient-7)" r="1"/><circle cx="50" cy="40" fill="url(#linear-gradient-8)" r="1"/><circle cx="39" cy="27" fill="url(#linear-gradient-9)" r="1"/><path d="m53 16-3 1-2-3v-2l4-2 2 1z" fill="url(#linear-gradient-10)"/><circle cx="59" cy="25" fill="url(#linear-gradient-11)" r="1"/><path d="m60 19 2 3 2-3-1-2h-2z" fill="url(#linear-gradient-12)"/><path d="m59 30-2 1a2 2 0 0 0 2 2 4.38 4.38 0 0 0 3-1v-1z" fill="url(#linear-gradient-13)"/></g></svg>