<svg id="Capa_1" enable-background="new 0 0 510.877 510.877" height="512" viewBox="0 0 510.877 510.877" width="512" xmlns="http://www.w3.org/2000/svg"><g><g><g><path d="m40.269 460.243c1.435 16.024 9.746 30.64 22.783 40.067 30.883 22.331 74.567 7.648 85.693-28.802l15.8-51.76-136.331-94.118z" fill="#ffb54c"/><path d="m460.243 40.269-134.613-12.055 94.117 136.331 51.76-15.8c36.45-11.126 51.133-54.811 28.802-85.693-9.427-13.037-24.042-21.348-40.066-22.783z" fill="#ff9e00"/></g><g><path d="m29.721 173.14-27.79 102.755c-6.262 23.154 3.042 47.713 23.074 60.905l123.533 81.357c27.898 18.373 65.585 8.151 80.375-21.801l25.642-51.928c1.585-3.211 3.483-6.251 5.648-9.089l-100.556-108.737-123.633-67.987c-2.761 4.503-4.902 9.382-6.293 14.525z" fill="#fec478"/><path d="m275.895 1.931-102.755 27.79c-5.143 1.391-10.022 3.532-14.525 6.293l61.14 125.915 115.585 98.273c2.838-2.165 5.878-4.062 9.089-5.648l51.928-25.642c29.952-14.79 40.174-52.477 21.801-80.375l-81.358-123.533c-13.192-20.031-37.751-29.335-60.905-23.073z" fill="#ffb54c"/></g></g><g><path d="m44.067 148.358c-3.098 3.098-5.781 6.553-8.053 10.256l224.188 176.725c1.501-1.968 3.127-3.842 4.883-5.598l32.328-32.328-92.876-109.614-108.324-91.586z" fill="#fedbab"/><path d="m148.358 44.067-52.145 52.146 201.2 201.2 32.328-32.328c1.756-1.756 3.63-3.382 5.598-4.883l-176.724-224.188c-3.704 2.272-7.159 4.955-10.257 8.053z" fill="#fec478"/></g></g></svg>