<svg enable-background="new 0 0 32 32" viewBox="0 0 32 32" xmlns="http://www.w3.org/2000/svg"><g id="Grid" display="none"/><g id="mochi"/><g id="jelly"/><g id="popsicle"/><g id="muffin"/><g id="cotton_candy"/><g id="jelly_bean"/><g id="cookie"/><g id="donut"><path d="m16.004 2.509c-7.73 0-14.004 5.039-14.004 11.242 0 6.212 6.274 11.242 14.004 11.242s13.993-5.029 13.993-11.242c.001-6.203-6.262-11.242-13.993-11.242zm0 14.628c-2.329 0-4.221-1.51-4.221-3.387 0-1.867 1.893-3.387 4.221-3.387s4.211 1.52 4.211 3.387c0 1.878-1.882 3.387-4.211 3.387z" fill="#ff9b9d"/><path d="m16.03 2.51c5.66 1.44 9.75 5.7 9.75 10.71 0 6.21-6.26 11.24-13.99 11.24h-.03c1.34.35 2.76.53 4.24.53 7.73 0 14-5.03 14-11.24 0-6.19-6.25-11.23-13.97-11.24z" fill="#db717c"/><path d="m20.215 13.751c0 .571-.17 1.102-.479 1.571-.702-1.081-2.105-1.816-3.732-1.816s-3.041.735-3.743 1.816c-.308-.469-.479-1-.479-1.571 0-1.867 1.893-3.387 4.221-3.387s4.212 1.52 4.212 3.387z" fill="#d49551"/><path d="m29.998 13.751v4.509c0 6.212-6.274 11.231-14.004 11.231s-13.983-5.019-13.983-11.231v-4.213c.191 6.08 6.391 10.946 13.993 10.946 7.731-.001 13.994-5.03 13.994-11.242z" fill="#f7bc70"/><path d="m7.278 7.837c.095 0 .189-.031.269-.096.996-.812 2.164-1.466 3.474-1.945.221-.081.334-.325.254-.545-.081-.221-.328-.333-.545-.253-1.4.511-2.651 1.213-3.72 2.085-.182.148-.209.417-.061.598.084.103.206.156.329.156z" fill="#ffccc3"/><path d="m5.893 9.465c.14-.189.1-.455-.09-.594-.188-.137-.454-.099-.594.09l-.16.224c-.133.194-.083.458.11.591.073.05.157.074.24.074.135 0 .269-.064.351-.185z" fill="#ffccc3"/><path d="m17.834 8.21c.077.059.167.087.258.087.128 0 .254-.057.338-.167.143-.187.106-.453-.08-.596l-1.416-1.083c-.186-.142-.451-.108-.596.079-.143.187-.106.453.08.596z" fill="#cdfbff"/><path d="m20.034 6.261h.004l1.782-.018c.235-.002.424-.194.421-.429-.002-.233-.192-.42-.425-.42-.001 0-.003 0-.004 0l-1.782.017c-.235.002-.424.194-.421.429.002.234.193.421.425.421z" fill="#ffeb8a"/><path d="m23.034 10.346c.068.04.143.06.217.06.145 0 .286-.075.365-.208l.909-1.534c.12-.202.054-.463-.148-.583-.2-.118-.461-.053-.582.149l-.909 1.534c-.12.201-.054.462.148.582z" fill="#cdfbff"/><g fill="#c0f2c0"><path d="m24.712 12.853 1.617.751c.058.027.118.04.179.04.16 0 .313-.091.386-.246.099-.213.006-.466-.207-.564l-1.617-.751c-.21-.101-.465-.007-.564.206-.1.212-.007.465.206.564z"/><path d="m6.294 12.217 1.665.637c.05.019.101.028.151.028.171 0 .332-.104.396-.273.084-.219-.025-.465-.245-.549l-1.665-.637c-.216-.083-.465.025-.548.245-.083.219.026.465.246.549z"/><path d="m13.892 5.823c.114 0 .229-.046.313-.137l1.206-1.313c.158-.173.146-.442-.026-.601-.171-.159-.44-.147-.601.025l-1.206 1.313c-.158.173-.146.442.026.601.082.076.185.112.288.112z"/></g><path d="m10.692 8.002-1.206 1.313c-.158.173-.146.442.027.601.081.075.185.112.287.112.114 0 .229-.046.313-.137l1.206-1.313c.158-.173.146-.442-.026-.601-.171-.158-.44-.147-.601.025z" fill="#ffeb8a"/><path d="m21.166 17.754c-.234.018-.409.222-.392.456l.135 1.778c.017.223.203.393.424.393.011 0 .021 0 .032-.001.234-.018.409-.222.392-.456l-.135-1.778c-.018-.235-.225-.422-.456-.392z" fill="#cdfbff"/><path d="m25.441 15.339-1.343 1.173c-.177.155-.195.423-.041.6.084.096.202.145.32.145.1 0 .199-.034.279-.104l1.344-1.173c.177-.155.195-.423.041-.6-.155-.177-.424-.193-.6-.041z" fill="#ffeb8a"/><path d="m7.058 15.829c-.23.043-.382.266-.339.497l.331 1.752c.039.204.217.346.418.346.025 0 .053-.002.079-.008.23-.043.382-.266.339-.497l-.331-1.752c-.044-.229-.261-.386-.497-.338z" fill="#cdfbff"/><path d="m16.396 20.714-1.344 1.172c-.177.154-.195.423-.041.6.084.096.202.146.32.146.1 0 .199-.034.279-.104l1.344-1.172c.177-.154.195-.423.041-.6-.153-.178-.423-.194-.599-.042z" fill="#c0f2c0"/><path d="m12.769 19.545-1.566-.852c-.203-.108-.463-.037-.576.17-.112.206-.036.464.17.577l1.566.852c.064.035.134.052.203.052.15 0 .296-.081.373-.222.112-.206.036-.464-.17-.577z" fill="#ffeb8a"/></g><g id="ice_cream"/><g id="marshmallows"/><g id="chocolate_cake"/><g id="macaron"/><g id="chocolate"/><g id="strawberry_chocolate"/><g id="lollipop"/><g id="croissant"/><g id="cupcake"/><g id="pudding"/><g id="banana_split"/><g id="caramelized_apple"/><g id="crepes"/><g id="pancake"/><g id="candy_corn"/><g id="dorayaki"/><g id="candy"/></svg>