<svg viewBox="0 0 64 64" xmlns="http://www.w3.org/2000/svg"><g id="Layer_31" data-name="Layer 31"><rect fill="#d6e4e8" height="8" rx="4" width="34" x="7" y="40"/><path d="m36.146 31.817a90.721 90.721 0 0 0 -24.292 0 7.969 7.969 0 0 0 -6.854 7.921v.262h38v-.262a7.969 7.969 0 0 0 -6.854-7.921z" fill="#ed5d5d"/><path d="m36.146 58.183a90.721 90.721 0 0 1 -24.292 0 7.969 7.969 0 0 1 -6.854-7.921v-.262h38v.262a7.969 7.969 0 0 1 -6.854 7.921z" fill="#ed5d5d"/><path d="m43.377 50.3a111.073 111.073 0 0 1 -38.754 0 1.974 1.974 0 0 1 -1.623-1.948 1.971 1.971 0 0 1 2.315-1.935 111.023 111.023 0 0 0 37.37 0 1.972 1.972 0 0 1 2.315 1.934 1.974 1.974 0 0 1 -1.623 1.949z" fill="#f97878"/><path d="m42.685 38.417a111.049 111.049 0 0 1 -37.37 0 1.971 1.971 0 0 0 -2.315 1.935 1.974 1.974 0 0 0 1.623 1.948 111.073 111.073 0 0 0 38.754 0 1.974 1.974 0 0 0 1.623-1.948 1.971 1.971 0 0 0 -2.315-1.935z" fill="#f97878"/><rect fill="#d6e4e8" height="8" rx="4" width="34" x="7" y="14"/><path d="m36.146 5.817a90.721 90.721 0 0 0 -24.292 0 7.969 7.969 0 0 0 -6.854 7.921v.262h38v-.262a7.969 7.969 0 0 0 -6.854-7.921z" fill="#f2a7b1"/><path d="m36.146 32.183a90.721 90.721 0 0 1 -24.292 0 7.969 7.969 0 0 1 -6.854-7.921v-.262h38v.262a7.969 7.969 0 0 1 -6.854 7.921z" fill="#f2a7b1"/><path d="m43.377 24.3a111.073 111.073 0 0 1 -38.754 0 1.974 1.974 0 0 1 -1.623-1.948 1.971 1.971 0 0 1 2.315-1.935 111.023 111.023 0 0 0 37.37 0 1.972 1.972 0 0 1 2.315 1.934 1.974 1.974 0 0 1 -1.623 1.949z" fill="#e8859b"/><path d="m42.685 12.417a111.049 111.049 0 0 1 -37.37 0 1.971 1.971 0 0 0 -2.315 1.935 1.974 1.974 0 0 0 1.623 1.948 111.073 111.073 0 0 0 38.754 0 1.974 1.974 0 0 0 1.623-1.948 1.971 1.971 0 0 0 -2.315-1.935z" fill="#e8859b"/><path d="m46.866 51.656-12.945-22a3.869 3.869 0 0 1 1.458-5.339 4.025 4.025 0 0 1 5.441 1.43l12.945 22a3.869 3.869 0 0 1 -1.458 5.339 4.026 4.026 0 0 1 -5.441-1.43z" fill="#d6e4e8"/><path d="m60.4 43.028a88.2 88.2 0 0 0 -12.1-20.555 8.038 8.038 0 0 0 -10.244-1.931l-.226.128 18.92 32.155.226-.128a7.714 7.714 0 0 0 3.424-9.669z" fill="#ffb966"/><path d="m37.659 55.908a88.162 88.162 0 0 1 -12.094-20.555 7.714 7.714 0 0 1 3.418-9.669l.226-.128 18.92 32.154-.226.128a8.038 8.038 0 0 1 -10.244-1.93z" fill="#ffb966"/><g fill="#f29e44"><path d="m48.06 58.175a108.061 108.061 0 0 1 -19.3-32.793 1.912 1.912 0 0 1 .869-2.324 1.978 1.978 0 0 1 2.822 1.014 108 108 0 0 0 18.611 31.621 1.9 1.9 0 0 1 -.516 2.9 1.992 1.992 0 0 1 -2.486-.418z"/><path d="m57.961 51.785a108 108 0 0 1 -18.606-31.622 1.978 1.978 0 0 0 -2.822-1.013 1.911 1.911 0 0 0 -.869 2.323 108.037 108.037 0 0 0 19.3 32.793 1.991 1.991 0 0 0 2.486.423 1.906 1.906 0 0 0 .511-2.904z"/></g></g></svg>