<svg viewBox="0 0 72 72" xmlns="http://www.w3.org/2000/svg"><g id="cake_slice" data-name="cake slice"><path d="m4 32h64a0 0 0 0 1 0 0v26a2 2 0 0 1 -2 2h-60a2 2 0 0 1 -2-2v-26a0 0 0 0 1 0 0z" fill="#754c24"/><path d="m68 38c-4.0024 0-4.0024 2-8.0047 2s-4.0024-2-8.0047-2c-4 0-4 2-7.9992 2s-4.0014-2-8.0014-2-3.9995 2-7.999 2-3.9985-2-7.9969-2-3.9984 2-7.9968 2-3.9989-2-7.9973-2v-6h64z" opacity=".2"/><path d="m68 52c-4.0024 0-4.0024 2-8.0047 2s-4.0024-2-8.0047-2c-4 0-4 2-7.9992 2s-4.0014-2-8.0014-2-3.9995 2-7.999 2-3.9985-2-7.9969-2-3.9984 2-7.9968 2-3.9989-2-7.9973-2v-6h64z" opacity=".2"/><path d="m68 38c-4.0024 0-4.0024 2-8.0047 2s-4.0024-2-8.0047-2c-4 0-4 2-7.9992 2s-4.0014-2-8.0014-2-3.9995 2-7.999 2-3.9985-2-7.9969-2-3.9984 2-7.9968 2-3.9989-2-7.9973-2v8h64z" fill="#e0b489"/><path d="m68 52c-4.0024 0-4.0024 2-8.0047 2s-4.0024-2-8.0047-2c-4 0-4 2-7.9992 2s-4.0014-2-8.0014-2-3.9995 2-7.999 2-3.9985-2-7.9969-2-3.9984 2-7.9968 2-3.9989-2-7.9973-2v6a2 2 0 0 0 2 2h60a2 2 0 0 0 2-2z" fill="#e0b489"/><path d="m64 32v26a2 2 0 0 1 -2 2h4a2 2 0 0 0 2-2v-26z" opacity=".1"/><path d="m68 32a22.4825 22.4825 0 0 0 -12.19-20h.0079l-31.6779 12.93-20.14 7.07z" fill="#754c24"/><g opacity=".1"><path d="m55.8133 12.0018-2.3436.9567a22.4642 22.4642 0 0 1 10.5303 19.0415h4a22.4824 22.4824 0 0 0 -12.1867-19.9982z"/><path d="m55.81 12 .003.002.005-.002z"/></g><g fill="#fff" opacity=".5"><circle cx="55" cy="17" r="1"/><circle cx="49" cy="20" r="1"/><circle cx="54" cy="23" r="1"/><circle cx="60" cy="22" r="1"/><circle cx="63" cy="28" r="1"/><circle cx="48" cy="28" r="1"/><circle cx="55" cy="28" r="1"/><circle cx="34" cy="29" r="1"/><circle cx="29" cy="27" r="1"/><circle cx="23" cy="29" r="1"/></g><circle cx="40" cy="23" fill="#e53a35" r="5"/><path d="m42.3733 18.6267a4.936 4.936 0 0 1 .6267 2.3733 5.0059 5.0059 0 0 1 -5 5 4.936 4.936 0 0 1 -2.3733-.6267 4.9828 4.9828 0 1 0 6.7466-6.7466z" opacity=".1"/><path d="m40 20a1 1 0 0 1 -1-1v-2a4.0046 4.0046 0 0 1 4-4 1 1 0 0 1 0 2 2.002 2.002 0 0 0 -2 2v2a1 1 0 0 1 -1 1z" fill="#e53a35"/></g></svg>