<svg viewBox="0 0 32 32" xmlns="http://www.w3.org/2000/svg"><g id="Layer_2" data-name="Layer 2"><path d="m30.029 18.242a4.529 4.529 0 0 0 -1.529-2.093 4.492 4.492 0 0 1 -.828-.891 4.55 4.55 0 0 1 -.37-1.187 4.514 4.514 0 0 0 -1.039-2.338 4.514 4.514 0 0 0 -2.34-1.04 4.584 4.584 0 0 1 -1.186-.368 4.5 4.5 0 0 1 -.89-.829 4.517 4.517 0 0 0 -2.093-1.524 4.44 4.44 0 0 0 -2.511.269 4.685 4.685 0 0 1 -1.243.279 4.685 4.685 0 0 1 -1.247-.279 4.464 4.464 0 0 0 -2.511-.27 4.529 4.529 0 0 0 -2.093 1.529 4.492 4.492 0 0 1 -.891.828 4.55 4.55 0 0 1 -1.187.37 4.514 4.514 0 0 0 -2.338 1.039 4.514 4.514 0 0 0 -1.04 2.34 4.584 4.584 0 0 1 -.368 1.186 4.5 4.5 0 0 1 -.829.89 4.517 4.517 0 0 0 -1.524 2.093 4.461 4.461 0 0 0 .268 2.51c.071.226.142.452.2.677a3.4 3.4 0 0 0 3.297 2.567h20.526a3.4 3.4 0 0 0 3.3-2.571c.055-.225.126-.451.2-.677a4.47 4.47 0 0 0 .266-2.51z" fill="#ffb06b"/><path d="m21.641 17a1 1 0 0 1 -.628-.222 7.956 7.956 0 0 0 -10.026 0 1 1 0 0 1 -1.257-1.556 9.957 9.957 0 0 1 12.54 0 1 1 0 0 1 -.629 1.778z" fill="#e88852"/></g></svg>