<svg viewBox="0 0 32 32" xmlns="http://www.w3.org/2000/svg"><g id="Layer_2" data-name="Layer 2"><path d="m22 7h-12a1 1 0 0 0 -1 1v12a1 1 0 0 0 1 1h13.053c3.217-.172 6-3.449 5.947-7.013a7.165 7.165 0 0 0 -7-6.987z" fill="#ffb06b"/><circle cx="10" cy="14" fill="#e88852" r="7"/><path d="m11.3 20.874c-3.072-2-4.414-4.448-4.074-6.055.233-1.1 1.338-2.68 2.607-2.744a2.138 2.138 0 0 1 1.923.925c.174.291.529 1.159.1 1.67a1.509 1.509 0 0 1 -1.216.364 1 1 0 1 0 -.285 1.979 3.49 3.49 0 0 0 3.026-1.05 3.478 3.478 0 0 0 .1-3.986 4.136 4.136 0 0 0 -3.738-1.9c-2.474.124-4.1 2.605-4.464 4.328-.423 2 .537 4.219 2.5 6.176.024.024.054.047.078.071a7.047 7.047 0 0 0 3.443.222z" fill="#ffb06b"/><path d="m28 19h-24a2 2 0 0 0 -2 2 5.006 5.006 0 0 0 5 5h18a5.006 5.006 0 0 0 5-5 2 2 0 0 0 -2-2z" fill="#eaf6ff"/></g></svg>