<svg id="Capa_1" enable-background="new 0 0 511.998 511.998" height="300" viewBox="0 0 511.998 511.998" width="300" xmlns="http://www.w3.org/2000/svg" version="1.1" xmlns:xlink="http://www.w3.org/1999/xlink" xmlns:svgjs="http://svgjs.dev/svgjs"><g width="100%" height="100%" transform="matrix(1,0,0,1,0,0)"><g><path d="m436.794 403.266c4.143 0 7.5-3.357 7.5-7.5v-301.665c0-13.938-11.34-25.278-25.278-25.278h-41.337v-43.542c0-7.436-3.251-14.46-8.92-19.271-5.67-4.812-13.123-6.881-20.467-5.672l-251.202 41.364c-17.027 2.804-29.386 17.363-29.386 34.62v410.398c0 13.938 11.34 25.278 25.279 25.278h326.033c13.938 0 25.278-11.34 25.278-25.278v-55.628c0-4.143-3.357-7.5-7.5-7.5s-7.5 3.357-7.5 7.5v55.628c0 5.668-4.611 10.278-10.278 10.278h-326.033c-5.668 0-10.279-4.61-10.279-10.278v-402.898h336.312c5.667 0 10.278 4.61 10.278 10.278v301.665c0 4.143 3.357 7.501 7.5 7.501zm-352.654-334.444c2.542-6.358 8.248-11.144 15.388-12.319l251.202-41.364c2.979-.492 6.016.349 8.322 2.307 2.305 1.956 3.627 4.812 3.627 7.836v43.541h-278.539z" fill="#f8a2ab" fill-opacity="1" data-original-color="#000000ff" stroke="none" stroke-opacity="1"/><path d="m150.752 110.822c4.142 0 7.5-3.357 7.5-7.5s-3.358-7.5-7.5-7.5h-48.548c-4.142 0-7.5 3.357-7.5 7.5v374.176c0 4.143 3.358 7.5 7.5 7.5h307.59c4.143 0 7.5-3.357 7.5-7.5v-374.176c0-4.143-3.357-7.5-7.5-7.5h-223.798c-4.142 0-7.5 3.357-7.5 7.5s3.358 7.5 7.5 7.5h216.298v359.176h-292.59v-359.176z" fill="#f8a2ab" fill-opacity="1" data-original-color="#000000ff" stroke="none" stroke-opacity="1"/><path d="m181.208 291.943v64.765c0 7.894 6.422 14.315 14.316 14.315h120.951c7.894 0 14.315-6.422 14.315-14.315v-64.765c0-7.895-6.422-14.316-14.315-14.316h-22.245c7.525-6.772 12.656-14.995 14.16-22.827 1.812-9.438-2.21-17.354-10.499-20.659-18.411-7.343-33.726 5.083-41.892 14.184-8.166-9.102-23.482-21.531-41.891-14.184-8.405 3.353-12.481 11.398-10.637 20.998 1.465 7.624 6.587 15.81 13.954 22.488h-21.9c-7.896 0-14.317 6.422-14.317 14.316zm15 39.882h52.292v24.198h-52.292zm67.291 24.198v-24.198h52.291v24.198zm52.291-39.198h-52.291v-24.198h52.291zm-23.457-68.753c.903.361 1.927.77 1.326 3.898-1.706 8.88-14.038 21.711-30.16 24.912v-13.996c3.732-5.081 16.022-19.922 28.834-14.814zm-72.668 0c1.862-.742 3.708-1.068 5.517-1.068 10.734 0 20.136 11.503 23.317 15.869v14.056c-16.409-3.072-28.569-15.621-30.298-24.62-.652-3.392.521-3.861 1.464-4.237zm28.834 44.555v24.198h-52.292v-24.198z" fill="#f8a2ab" fill-opacity="1" data-original-color="#000000ff" stroke="none" stroke-opacity="1"/><path d="m283.984 416.827c4.143 0 7.5-3.357 7.5-7.5s-3.357-7.5-7.5-7.5h-55.971c-4.142 0-7.5 3.357-7.5 7.5s3.358 7.5 7.5 7.5z" fill="#f8a2ab" fill-opacity="1" data-original-color="#000000ff" stroke="none" stroke-opacity="1"/><path d="m182.282 437.632c0 4.143 3.358 7.5 7.5 7.5h132.435c4.143 0 7.5-3.357 7.5-7.5s-3.357-7.5-7.5-7.5h-132.435c-4.142 0-7.5 3.357-7.5 7.5z" fill="#f8a2ab" fill-opacity="1" data-original-color="#000000ff" stroke="none" stroke-opacity="1"/><path d="m302.55 186.322 20.931 18.284c2.333 2.038 5.258 3.057 8.184 3.057 2.925 0 5.851-1.02 8.183-3.057l20.932-18.284c8.016-7.001 10.844-18.383 7.038-28.321-2.521-6.583-7.491-11.702-13.997-14.416-6.505-2.712-13.643-2.641-20.092.198-.001.001-.001.001-.001.001l-2.062.908-2.063-.909c-6.448-2.839-13.586-2.911-20.092-.197-6.506 2.713-11.477 7.833-13.997 14.415-3.808 9.938-.98 21.32 7.036 28.321zm6.97-22.958c1.038-2.71 3.084-4.817 5.763-5.935 1.307-.545 2.676-.817 4.043-.817 1.436 0 2.869.3 4.229.898l5.086 2.24c1.926.85 4.121.85 6.047 0l5.086-2.24c2.655-1.169 5.594-1.198 8.272-.081s4.725 3.225 5.763 5.937c1.566 4.091.402 8.776-2.897 11.659l-19.247 16.812-19.247-16.812c-3.301-2.882-4.465-7.568-2.898-11.661z" fill="#f8a2ab" fill-opacity="1" data-original-color="#000000ff" stroke="none" stroke-opacity="1"/></g></g></svg>