<svg id="svg2" height="300" viewBox="0 0 32 32.000001" width="300" xmlns="http://www.w3.org/2000/svg" xmlns:cc="http://creativecommons.org/ns#" xmlns:dc="http://purl.org/dc/elements/1.1/" xmlns:inkscape="http://www.inkscape.org/namespaces/inkscape" xmlns:rdf="http://www.w3.org/1999/02/22-rdf-syntax-ns#" xmlns:sodipodi="http://sodipodi.sourceforge.net/DTD/sodipodi-0.dtd" xmlns:svg="http://www.w3.org/2000/svg" version="1.1" xmlns:xlink="http://www.w3.org/1999/xlink" xmlns:svgjs="http://svgjs.dev/svgjs"><g width="100%" height="100%" transform="matrix(1,0,0,1,0,0)"><g id="layer1" transform="translate(0 -1020.362)"><path id="path11311" d="m17.625 1026.6123h4.875c.831 0 1.5.669 1.5 1.4999v20.0001c0 .8309-.669 1.4999-1.5 1.4999h-13c-.831 0-1.5-.669-1.5-1.4999v-20.0001c0-.8309.669-1.4999 1.5-1.4999h4.875" fill="none" stroke="#f8a2ab" stroke-linecap="round" stroke-linejoin="round" fill-opacity="1" stroke-opacity="1" data-original-stroke-color="#000000ff" stroke-width="1" data-original-stroke-width="1"/><path id="path11313" d="m14.49999 1023.1122h2.99998l.00002 4.5001c0 .5523-.44772.9999-.99999.9999h-.99999c-.55229 0-1-.4476-1-.9999z" fill="none" stroke="#f8a2ab" stroke-linecap="round" stroke-linejoin="round" fill-opacity="1" stroke-opacity="1" data-original-stroke-color="#000000ff" stroke-width="1" data-original-stroke-width="1"/><path id="path11315" d="m15.5 1024.113h1v.9999h-1z" fill="#f8a2ab" fill-opacity="1" data-original-color="#000000ff" stroke="none" stroke-opacity="1"/><g fill="none" stroke="#000"><path id="path11317" d="m10.5 1041.6124h11" fill="none" fill-opacity="1" stroke="#f8a2ab" stroke-opacity="1" data-original-stroke-color="#000000ff" stroke-width="1" data-original-stroke-width="1"/><path id="path11319" d="m10.5 1044.1124h11" fill="none" fill-opacity="1" stroke="#f8a2ab" stroke-opacity="1" data-original-stroke-color="#000000ff" stroke-width="1" data-original-stroke-width="1"/><path id="path11321" d="m12.5 1046.6123h7" fill="none" fill-opacity="1" stroke="#f8a2ab" stroke-opacity="1" data-original-stroke-color="#000000ff" stroke-width="1" data-original-stroke-width="1"/><path id="ellipse11323" d="m17.50001 1032.6127a1.5000001 1.4999564 0 0 1 -1.5 1.4999 1.5000001 1.4999564 0 0 1 -1.5-1.4999 1.5000001 1.4999564 0 0 1 1.5-1.5 1.5000001 1.4999564 0 0 1 1.5 1.5z" stroke-linecap="round" stroke-linejoin="round" stroke-width="1" fill="none" fill-opacity="1" stroke="#f8a2ab" stroke-opacity="1" data-original-stroke-color="#000000ff" data-original-stroke-width="1"/><path id="path11325" d="m12.5 1035.1126v2.5a1 .99997084 0 0 0 1 .9999h5a1 .99997084 0 0 0 1-.9999v-2.5" fill="none" fill-opacity="1" stroke="#f8a2ab" stroke-opacity="1" data-original-stroke-color="#000000ff" stroke-width="1" data-original-stroke-width="1"/></g></g></g></svg>