<svg id="Layer_1" enable-background="new 0 0 60 60" height="300" viewBox="0 0 60 60" width="300" xmlns="http://www.w3.org/2000/svg" xmlns:xlink="http://www.w3.org/1999/xlink" version="1.1" xmlns:svgjs="http://svgjs.dev/svgjs"><g width="100%" height="100%" transform="matrix(1,0,0,1,0,0)"><clipPath id="SVGID_2_"><path id="SVGID_1_" d="m0 0h60v60h-60z" fill="#f8a2ab" fill-opacity="1" data-original-color="#000000ff" stroke="none" stroke-opacity="1"/></clipPath><g><g clip-path="url(#SVGID_2_)"><g><path d="m17.1 57-4.7-9.2-10.3 3.9 7.4-18.4 2.3.9-5.3 13.1 7.1-2.7 3.3 6.4 8.7-22.1 2.3.9z" fill="#f8a2ab" fill-opacity="1" data-original-color="#000000ff" stroke="none" stroke-opacity="1"/></g><g><path d="m42.9 57-10.8-27.2 2.3-.9 8.8 22.1 3.2-6.4 7.1 2.7-5.3-13.1 2.3-.9 7.4 18.4-10.3-3.9z" fill="#f8a2ab" fill-opacity="1" data-original-color="#000000ff" stroke="none" stroke-opacity="1"/></g><g><path d="m30 31.3c-5.5 0-10-4.5-10-10s4.5-10 10-10 10 4.5 10 10-4.5 10-10 10zm0-17.5c-4.1 0-7.5 3.4-7.5 7.5s3.4 7.5 7.5 7.5 7.5-3.4 7.5-7.5-3.4-7.5-7.5-7.5z" fill="#f8a2ab" fill-opacity="1" data-original-color="#000000ff" stroke="none" stroke-opacity="1"/></g><g><path d="m48.7 35c-.5 0-1 0-1.6-.1-2.1-.3-4.1-1.2-5.8-2.6l-5.3-4.6 1.6-1.9 5.4 4.6c1.3 1.1 2.8 1.8 4.5 2s3.4 0 4.9-.7 2.8-1.8 3.7-3.2 1.4-3.1 1.4-4.7v-4.9c0-1.7-.5-3.3-1.4-4.7s-2.2-2.5-3.7-3.2-3.2-1-4.9-.7c-1.7.2-3.2.9-4.5 2l-5.4 4.6-1.6-2.1 5.4-4.6c1.6-1.4 3.6-2.3 5.8-2.6 2.1-.3 4.3 0 6.3.9s3.6 2.3 4.8 4.2c1.2 1.8 1.8 3.9 1.8 6.1v4.9c0 2.2-.6 4.3-1.8 6.1s-2.8 3.3-4.8 4.2c-1.6.7-3.2 1-4.8 1z" fill="#f8a2ab" fill-opacity="1" data-original-color="#000000ff" stroke="none" stroke-opacity="1"/></g><g><path d="m11.3 35c-1.6 0-3.2-.3-4.7-1-2-.9-3.6-2.3-4.8-4.2-1.2-1.8-1.8-3.9-1.8-6.1v-4.9c0-2.2.6-4.3 1.8-6.1s2.8-3.3 4.8-4.2 4.1-1.2 6.3-.9c2.1.3 4.1 1.2 5.8 2.6l5.4 4.6-1.6 1.9-5.5-4.6c-1.3-1.1-2.8-1.8-4.5-2s-3.4 0-4.9.7-2.8 1.8-3.7 3.2-1.4 3.1-1.4 4.7v4.9c0 1.7.5 3.3 1.4 4.7s2.2 2.5 3.7 3.2 3.2 1 4.9.7c1.7-.2 3.2-.9 4.5-2l5.4-4.6 1.6 1.9-5.4 4.6c-1.6 1.4-3.6 2.3-5.8 2.6-.5.3-1 .3-1.5.3z" fill="#f8a2ab" fill-opacity="1" data-original-color="#000000ff" stroke="none" stroke-opacity="1"/></g></g></g></g></svg>